<svg width="146" height="143" viewBox="0 0 146 143" fill="none" xmlns="http://www.w3.org/2000/svg">
<g filter="url(#filter0_f_67_404)">
<path d="M101.025 20H45.3715C31.8112 20 20.8184 30.7347 20.8184 43.9766V98.3234C20.8184 111.565 31.8112 122.3 45.3715 122.3H101.025C114.586 122.3 125.578 111.565 125.578 98.3234V43.9766C125.578 30.7347 114.586 20 101.025 20Z" fill="#A8E3FF"/>
<path d="M38.0938 71.1474C38.0938 84.7161 46.1689 96.4423 57.8783 101.999L41.133 57.1966C39.1257 61.5862 38.09 66.3401 38.0938 71.1474ZM96.896 69.4175C96.896 65.1812 95.3377 62.2473 94.0012 59.9635C92.2215 57.1399 90.5536 54.7486 90.5536 51.925C90.5536 48.7737 93.0011 45.8405 96.4484 45.8405C96.6043 45.8405 96.7516 45.8593 96.9034 45.8677C90.6579 40.2804 82.3373 36.8689 73.1978 36.8689C60.9343 36.8689 50.1444 43.0133 43.8678 52.3202C44.6912 52.3442 45.4675 52.3614 46.1267 52.3614C49.7986 52.3614 55.4823 51.9258 55.4823 51.9258C57.3745 51.8171 57.5979 54.5312 55.7074 54.7498C55.7074 54.7498 53.8057 54.9684 51.6896 55.0767L64.4728 92.2076L72.1551 69.7084L66.6859 55.0755C64.7957 54.9672 63.0049 54.7486 63.0049 54.7486C61.1131 54.6403 61.3349 51.8159 63.2267 51.925C63.2267 51.925 69.0237 52.3598 72.473 52.3598C76.1446 52.3598 81.8286 51.925 81.8286 51.925C83.7225 51.8159 83.9447 54.53 82.0537 54.7486C82.0537 54.7486 80.1479 54.9672 78.036 55.0755L90.7222 91.9251L94.2234 80.4994C95.7412 75.7577 96.896 72.3522 96.896 69.4175Z" fill="white"/>
<path d="M73.8137 74.1462L63.2812 104.033C66.5014 104.959 69.8409 105.429 73.1978 105.43C77.1682 105.431 81.1099 104.774 84.8549 103.486C84.7574 103.336 84.6739 103.178 84.6052 103.014L73.8137 74.1462ZM104 54.7012C104.16 55.8695 104.239 57.047 104.237 58.2257C104.237 61.7043 103.571 65.6149 101.567 70.5045L90.8446 100.779C101.281 94.8355 108.301 83.7947 108.301 71.1483C108.301 65.1881 106.742 59.5836 104 54.7012Z" fill="white"/>
<path d="M73.1974 31.189C50.6339 31.189 32.2764 49.1142 32.2764 71.1475C32.2764 93.1836 50.6339 111.108 73.1974 111.108C95.7597 111.108 114.12 93.1836 114.12 71.1475C114.119 49.1142 95.7597 31.189 73.1974 31.189ZM73.1974 109.277C51.6684 109.277 34.1526 92.1718 34.1526 71.1475C34.1526 50.1245 51.668 33.0212 73.1974 33.0212C94.7252 33.0212 112.24 50.1245 112.24 71.1475C112.24 92.1718 94.7252 109.277 73.1974 109.277Z" fill="white"/>
</g>
<path d="M101.025 20H45.3715C31.8112 20 20.8184 30.7347 20.8184 43.9766V98.3234C20.8184 111.565 31.8112 122.3 45.3715 122.3H101.025C114.586 122.3 125.578 111.565 125.578 98.3234V43.9766C125.578 30.7347 114.586 20 101.025 20Z" fill="#0073AA"/>
<path d="M38.0938 71.1474C38.0938 84.7161 46.1689 96.4423 57.8783 101.999L41.133 57.1966C39.1257 61.5862 38.09 66.3401 38.0938 71.1474ZM96.896 69.4175C96.896 65.1812 95.3377 62.2473 94.0012 59.9635C92.2215 57.1399 90.5536 54.7486 90.5536 51.925C90.5536 48.7737 93.0011 45.8405 96.4484 45.8405C96.6043 45.8405 96.7516 45.8593 96.9034 45.8677C90.6579 40.2804 82.3373 36.8689 73.1978 36.8689C60.9343 36.8689 50.1444 43.0133 43.8678 52.3202C44.6912 52.3442 45.4675 52.3614 46.1267 52.3614C49.7986 52.3614 55.4823 51.9258 55.4823 51.9258C57.3745 51.8171 57.5979 54.5312 55.7074 54.7498C55.7074 54.7498 53.8057 54.9684 51.6896 55.0767L64.4728 92.2076L72.1551 69.7084L66.6859 55.0755C64.7957 54.9672 63.0049 54.7486 63.0049 54.7486C61.1131 54.6403 61.3349 51.8159 63.2267 51.925C63.2267 51.925 69.0237 52.3598 72.473 52.3598C76.1446 52.3598 81.8286 51.925 81.8286 51.925C83.7225 51.8159 83.9447 54.53 82.0537 54.7486C82.0537 54.7486 80.1479 54.9672 78.036 55.0755L90.7222 91.9251L94.2234 80.4994C95.7412 75.7577 96.896 72.3522 96.896 69.4175Z" fill="white"/>
<path d="M73.8137 74.1462L63.2812 104.033C66.5014 104.959 69.8409 105.429 73.1978 105.43C77.1682 105.431 81.1099 104.774 84.8549 103.486C84.7574 103.336 84.6739 103.178 84.6052 103.014L73.8137 74.1462ZM104 54.7012C104.16 55.8695 104.239 57.047 104.237 58.2257C104.237 61.7043 103.571 65.6149 101.567 70.5045L90.8446 100.779C101.281 94.8355 108.301 83.7947 108.301 71.1483C108.301 65.1881 106.742 59.5836 104 54.7012Z" fill="white"/>
<path d="M73.1974 31.189C50.6339 31.189 32.2764 49.1142 32.2764 71.1475C32.2764 93.1836 50.6339 111.108 73.1974 111.108C95.7597 111.108 114.12 93.1836 114.12 71.1475C114.119 49.1142 95.7597 31.189 73.1974 31.189ZM73.1974 109.277C51.6684 109.277 34.1526 92.1718 34.1526 71.1475C34.1526 50.1245 51.668 33.0212 73.1974 33.0212C94.7252 33.0212 112.24 50.1245 112.24 71.1475C112.24 92.1718 94.7252 109.277 73.1974 109.277Z" fill="white"/>
<defs>
<filter id="filter0_f_67_404" x="0.818359" y="0" width="144.76" height="142.3" filterUnits="userSpaceOnUse" color-interpolation-filters="sRGB">
<feFlood flood-opacity="0" result="BackgroundImageFix"/>
<feBlend mode="normal" in="SourceGraphic" in2="BackgroundImageFix" result="shape"/>
<feGaussianBlur stdDeviation="10" result="effect1_foregroundBlur_67_404"/>
</filter>
</defs>
</svg>
