<svg width="64" height="48" viewBox="0 0 64 48" fill="none" xmlns="http://www.w3.org/2000/svg">
<path d="M0.137695 45.6255V0.71994C0.137695 0.392575 0.278462 0.228075 0.559587 0.228075L1.0044 0.226848L1.7647 0.218663L2.82128 0.197795L6.36091 0.122909L10.1563 0.0525252C11.4911 0.0296096 12.8145 0.017334 14.1264 0.017334C17.6865 0.017334 20.6848 0.462551 23.1216 1.35258C25.3197 2.0961 27.3244 3.32042 28.9897 4.93641C30.4013 6.33725 31.4923 8.02769 32.1872 9.89109C32.8446 11.7044 33.1777 13.6192 33.1713 15.548C33.1713 19.2967 32.3042 22.3887 30.5708 24.8243C28.8754 27.2004 26.5106 29.0176 23.778 30.0441L23.5435 30.1301C20.6901 31.1944 17.5302 31.5791 14.0646 31.6032L13.5261 31.6048L12.7269 31.6007L12.3239 31.595L11.8746 31.5844L11.6037 31.5737L11.4392 31.5651L11.0345 31.5504L10.5397 31.5402L9.79498 31.5349L9.62925 31.5345V45.5551C9.64157 45.6411 9.6337 45.7287 9.60626 45.8111C9.57883 45.8934 9.53258 45.9683 9.47119 46.0297C9.40979 46.0911 9.33494 46.1373 9.25257 46.1648C9.17019 46.1922 9.08256 46.2001 8.99662 46.1878H0.629971C0.301378 46.1878 0.137695 46.0012 0.137695 45.6255ZM9.62966 8.66101V23.3074C10.1905 23.3526 10.7529 23.3761 11.3156 23.3777H13.635C15.2341 23.3724 16.8239 23.1343 18.3544 22.671L18.6596 22.5757C20.052 22.1621 21.2962 21.357 22.2439 20.2563C23.1245 19.2177 23.5808 17.7867 23.6123 15.9629L23.6143 15.7587C23.6511 14.3993 23.2976 13.0579 22.595 11.8937C21.8566 10.7678 20.7892 9.89669 19.5382 9.39881C17.9046 8.76391 16.1597 8.46523 14.408 8.52066L13.5167 8.52311L12.9545 8.52802L12.418 8.53498L11.661 8.54971L11.1085 8.56526L10.8217 8.5759L10.4383 8.5939L10.1117 8.61395L9.92552 8.62869L9.7647 8.64424L9.69391 8.65242L9.62966 8.66101ZM60.3427 20.6442C59.1168 20.0143 57.8165 19.541 56.4724 19.2357L56.1614 19.1686C54.6828 18.8293 53.1732 18.6424 51.6565 18.6109L51.2775 18.6064C50.3884 18.5823 49.5005 18.6889 48.6422 18.9227C48.0959 19.0442 47.6102 19.3553 47.2714 19.8009C47.0424 20.1573 46.9205 20.572 46.9203 20.9957C46.9331 21.4066 47.0813 21.8018 47.3418 22.1198C47.7147 22.556 48.1631 22.9215 48.6656 23.1989L48.8178 23.2795C49.8197 23.819 50.8521 24.3 51.9098 24.7199C54.2682 25.5095 56.5218 26.5832 58.6207 27.9175C60.0508 28.82 61.2343 30.0638 62.0646 31.5369C62.7627 32.9316 63.1124 34.4747 63.0836 36.0341C63.1256 38.0936 62.5371 40.1166 61.3968 41.8322C60.1761 43.5733 58.4807 44.927 56.5125 45.7319C54.4513 46.6379 51.92 47.1056 48.9189 47.1363L48.607 47.1379C46.7466 47.1568 44.8887 46.9939 43.0598 46.6518L42.6686 46.5757C41.1288 46.2933 39.6299 45.8211 38.2062 45.1701C38.0631 45.0962 37.9422 44.9857 37.8558 44.8498C37.7694 44.7139 37.7206 44.5576 37.7144 44.3967V36.7371C37.7059 36.6628 37.7179 36.5875 37.7488 36.5194C37.7798 36.4513 37.8287 36.3929 37.8903 36.3504C37.9506 36.3163 38.0199 36.3014 38.089 36.3077C38.158 36.314 38.2234 36.3412 38.2766 36.3856C39.9579 37.377 41.7835 38.1002 43.6876 38.529C45.366 38.9498 47.0876 39.1739 48.8178 39.1969C50.4571 39.1969 51.6634 38.9857 52.4368 38.5642C52.786 38.4044 53.0814 38.1467 53.2873 37.8224C53.4931 37.4982 53.6005 37.1212 53.5965 36.7371C53.5965 36.129 53.245 35.543 52.5424 34.9804C52.2478 34.7447 51.825 34.4881 51.2751 34.2111L51.012 34.0818L50.7312 33.9496L50.5839 33.8825L50.2754 33.7458C50.2218 33.7225 50.1682 33.6993 50.1146 33.6762L49.779 33.5355L49.6043 33.4639L49.2417 33.3186L49.0535 33.2449L48.6635 33.0948L48.2555 32.9421C46.0489 32.1741 43.9566 31.1103 42.036 29.7798C40.6624 28.8244 39.5313 27.5609 38.7333 26.0904C38.0422 24.7056 37.6928 23.1755 37.7144 21.628C37.7104 19.7686 38.2212 17.9444 39.19 16.3574C40.2948 14.6101 41.8809 13.2188 43.7579 12.3521C45.8191 11.3221 48.3955 10.8065 51.4879 10.8057C53.299 10.7911 55.1085 10.9204 56.8992 11.1924C58.1959 11.3568 59.4636 11.6997 60.6664 12.2113C60.8599 12.2669 61.0158 12.4098 61.0879 12.598C61.1357 12.7695 61.1591 12.9466 61.1582 13.1251V20.2227C61.1685 20.3905 61.0879 20.5513 60.9475 20.6442C60.8535 20.6909 60.75 20.7153 60.6451 20.7153C60.5402 20.7153 60.4367 20.6909 60.3427 20.6442Z" fill="#31A8FF"/>
</svg>
