<svg width="59" height="51" viewBox="0 0 59 51" fill="none" xmlns="http://www.w3.org/2000/svg">
<path d="M29.8252 39.295H13.5919L10.2888 49.5551C10.2439 49.7422 10.135 49.9078 9.98107 50.0233C9.82711 50.1388 9.63768 50.197 9.44543 50.1877H1.22324C0.754696 50.1877 0.590604 49.9299 0.731371 49.4143L14.7864 8.93639C14.9268 8.5149 15.0675 8.0349 15.2079 7.49598C15.392 6.55807 15.4861 5.60544 15.489 4.64994C15.4794 4.58311 15.4856 4.51496 15.5069 4.4509C15.5282 4.38684 15.5642 4.32862 15.6119 4.28086C15.6596 4.2331 15.7178 4.1971 15.7819 4.17572C15.8459 4.15434 15.914 4.14816 15.9809 4.15767H27.1547C27.4821 4.15767 27.6695 4.27511 27.7169 4.50958L43.6691 49.4847C43.8098 49.9537 43.6691 50.1881 43.2476 50.1877H34.1116C33.9547 50.2051 33.7969 50.1648 33.6676 50.0743C33.5383 49.9838 33.4463 49.8492 33.409 49.6959L29.8252 39.295ZM16.1216 30.4406H27.2251L27.0667 29.9181L26.8126 29.0906L26.6313 28.5096L26.342 27.5946L25.727 25.6685L25.186 23.9608L23.7812 19.5128C23.4315 18.407 23.096 17.2969 22.7745 16.1826L22.5176 15.2783L22.2172 14.209L21.7589 12.5517L21.673 12.2395H21.603C21.2514 13.9263 20.8232 15.5962 20.3197 17.2441L19.277 20.598L18.7033 22.4509L18.1243 24.3267C18.0196 24.6655 17.9156 25.0006 17.8113 25.3317L17.5003 26.313L17.1909 27.2713L16.8832 28.2059L16.5771 29.1172C16.4756 29.4172 16.3741 29.7131 16.2731 30.0052L16.1216 30.4406ZM53.1553 11.6069C52.4386 11.6356 51.7238 11.5128 51.0578 11.2464C50.3918 10.98 49.7895 10.576 49.2903 10.0609C48.7925 9.52338 48.4058 8.89279 48.1525 8.20534C47.8992 7.5179 47.7843 6.78717 47.8143 6.05516C47.7888 5.3305 47.9165 4.60861 48.189 3.93664C48.4614 3.26466 48.8725 2.65771 49.3955 2.15542C50.4042 1.18708 51.7476 0.645183 53.1459 0.642578L53.2957 0.644216C54.9824 0.644216 56.3062 1.14754 57.2666 2.15501C57.7513 2.67846 58.1281 3.29238 58.3752 3.96163C58.6224 4.63087 58.7351 5.34229 58.707 6.05516C58.7365 6.79008 58.6179 7.52343 58.3584 8.21163C58.0988 8.89983 57.7036 9.52884 57.1962 10.0613C56.6839 10.5663 56.0758 10.9636 55.4076 11.23C54.7394 11.4963 54.0247 11.6263 53.3055 11.6122L53.1553 11.6069ZM48.3062 49.4847V15.8937C48.3062 15.4722 48.4928 15.2611 48.8684 15.2611H57.5125C57.887 15.2611 58.0744 15.4718 58.0748 15.8937V49.4847C58.0748 49.9537 57.8874 50.1881 57.5125 50.1877H48.9388C48.5394 50.1877 48.3291 49.9774 48.3082 49.5567L48.3062 49.4847Z" fill="#FF9A00"/>
</svg>
