<svg width="75" height="51" viewBox="0 0 75 51" fill="none" xmlns="http://www.w3.org/2000/svg">
<path d="M39.8627 4.86033L26.7914 26.435L40.7761 49.3444C40.8661 49.5048 40.891 49.6931 40.8464 49.8715C40.8248 49.9476 40.7781 49.9664 40.7065 49.9693L40.6271 49.968L40.5305 49.9656C40.4782 49.9656 40.4196 49.968 40.3546 49.9787H30.2717L30.0737 49.9754C29.5302 49.9611 29.1386 49.8833 28.9001 49.4848C27.9671 47.6673 27.03 45.8519 26.0888 44.0386C25.2469 42.4214 24.382 40.8162 23.4944 39.2235L23.1024 38.5221C22.0408 36.6354 20.9984 34.7379 19.9752 32.83H19.9049C18.96 34.718 17.9878 36.5921 16.9884 38.4517C15.9806 40.3259 14.985 42.1886 14.0016 44.0386C13.0177 45.8901 12.0105 47.7291 10.9801 49.5552C10.8143 49.9275 10.5389 50.0053 10.1555 50.018L9.99592 50.0204H0.368501L0.326762 50.0217L0.189268 50.0339C0.112746 50.0384 0.0669154 50.0221 0.052184 49.9067C0.0257747 49.7353 0.0633548 49.5602 0.157759 49.4148L13.7205 27.1376L0.50886 4.79077C0.368501 4.60417 0.345176 4.45194 0.438476 4.33409C0.490336 4.27405 0.55545 4.2269 0.628673 4.19636C0.701895 4.16583 0.781216 4.15274 0.860367 4.15813H10.7689C10.985 4.1463 11.201 4.18235 11.4015 4.26371C11.5693 4.35905 11.7138 4.49123 11.823 4.65041C12.6664 6.52458 13.6035 8.39875 14.6343 10.2721C15.6571 12.1336 16.6995 13.9843 17.7614 15.8238C18.8071 17.6348 19.78 19.4869 20.6779 21.3755H20.7482C21.6684 19.4873 22.6172 17.6132 23.5943 15.7538C24.5539 13.9267 25.538 12.0873 26.5455 10.2369C27.5402 8.41021 28.5124 6.57137 29.4619 4.7208C29.5159 4.54729 29.6125 4.39015 29.743 4.26371C29.9166 4.17583 30.1116 4.13921 30.3053 4.15813H39.5112C39.5958 4.13704 39.685 4.14399 39.7654 4.17795C39.8457 4.21191 39.9129 4.27104 39.9567 4.34645C40.0005 4.42186 40.0187 4.50946 40.0085 4.59609C39.9982 4.68271 39.9602 4.76367 39.9 4.82678L39.8631 4.86115L39.8627 4.86033ZM60.5154 50.8851L60.0309 50.8904C56.7963 50.9397 53.5913 50.2676 50.649 48.9229C47.9081 47.6544 45.6168 45.5836 44.0784 42.9845C42.5271 40.4081 41.7307 37.1975 41.6906 33.3538L41.689 33.0408C41.6627 29.8154 42.487 26.6401 44.0788 23.8349C45.6718 21.0583 47.9944 18.7706 50.7947 17.2196L51.0357 17.0887C54.0802 15.4019 57.7581 14.5585 62.0687 14.5585L62.257 14.5606L62.4722 14.5675L62.7136 14.5782L62.9821 14.5937L63.433 14.6256L63.9437 14.6666L64.3173 14.6993V0.855015C64.3173 0.52765 64.4581 0.363149 64.7388 0.363149H73.5936C73.6509 0.354934 73.7093 0.360173 73.7642 0.37845C73.8191 0.396726 73.8689 0.427537 73.9098 0.468441C73.9507 0.509345 73.9816 0.559216 73.9998 0.6141C74.0181 0.668984 74.0233 0.727371 74.0151 0.784631V42.3171C74.0151 43.0144 74.0421 43.7657 74.0961 44.5694L74.2271 46.3924L74.2967 47.4469C74.3053 47.593 74.2697 47.7382 74.1944 47.8637C74.1191 47.9891 74.0077 48.0889 73.8748 48.1499C71.5904 49.1025 69.2111 49.8091 66.7771 50.2578C64.7107 50.6392 62.6163 50.849 60.5154 50.8851ZM64.3173 42.1763V22.9915C63.9375 22.8886 63.5497 22.8181 63.158 22.7807C62.6793 22.7326 62.1984 22.7091 61.7172 22.7104C60.012 22.6935 58.3267 23.0787 56.7982 23.8349C55.3093 24.5749 54.038 25.6888 53.1087 27.0676C52.1811 28.4245 51.7011 30.1964 51.6696 32.3832L51.6679 32.6193C51.6337 34.1511 51.8839 35.6759 52.4057 37.1165C52.8305 38.2775 53.5021 39.3325 54.374 40.2089C55.2085 41.015 56.2187 41.6164 57.3252 41.9656C58.494 42.3441 59.7157 42.534 60.9442 42.5283C61.5998 42.5283 62.2087 42.5045 62.7713 42.4575C63.2201 42.4237 63.6649 42.3498 64.1004 42.2365L64.3173 42.1763Z" fill="#FF61F6"/>
</svg>
