<svg width="432" height="432" viewBox="0 0 432 432" fill="none" xmlns="http://www.w3.org/2000/svg">
<g filter="url(#filter0_bd_67_856)">
<rect x="26" y="25" width="380" height="380" rx="190" fill="#CFCFCF" fill-opacity="0.05" shape-rendering="crispEdges"/>
<path d="M184.947 108.544C184.947 105.684 183.088 103.682 180.423 103.682C177.771 103.682 175.912 105.697 175.912 108.544C175.912 111.404 177.758 113.406 180.41 113.406C183.075 113.406 184.947 111.404 184.947 108.544ZM183.608 108.544C183.608 110.715 182.334 112.184 180.423 112.184C178.512 112.184 177.251 110.728 177.251 108.544C177.251 106.36 178.512 104.917 180.423 104.917C182.334 104.917 183.608 106.36 183.608 108.544ZM188.82 109.909C188.82 112.08 190.198 113.406 192.421 113.406C194.631 113.406 196.009 112.067 196.009 109.909V103.851H194.722V109.831C194.722 111.326 193.903 112.171 192.421 112.171C190.926 112.171 190.094 111.339 190.094 109.831V103.851H188.82V109.909ZM201.711 113.25V109.532H204.116L205.871 113.25H207.288L205.377 109.285C206.547 108.908 207.197 107.972 207.197 106.672C207.197 104.917 206.001 103.851 203.986 103.851H200.437V113.25H201.711ZM201.711 104.995H203.986C205.156 104.995 205.858 105.593 205.858 106.685C205.858 107.764 205.182 108.401 203.999 108.401H201.711V104.995ZM216.206 105.021H219.04V113.25H220.314V105.021H223.135V103.851H216.206V105.021ZM232.458 113.25V112.067H227.999V109.09H232.016V107.959H227.999V105.021H232.458V103.851H226.725V113.25H232.458ZM237.004 113.25L237.836 110.91H241.788L242.633 113.25H243.972L240.527 103.851H239.11L235.678 113.25H237.004ZM239.656 105.879C239.721 105.684 239.786 105.463 239.812 105.333C239.838 105.476 239.903 105.697 239.968 105.879L241.411 109.805H238.226L239.656 105.879ZM248.779 113.25V109.233C248.779 107.92 248.753 106.958 248.688 106.503L251.418 113.25H252.614L255.357 106.477C255.292 107.14 255.279 107.777 255.279 109.532V113.25H256.527V103.851H255.253L252.016 111.755L248.779 103.851H247.531V113.25H248.779Z" fill="white"/>
<path d="M125.963 151.207L125.045 154.437C125.028 154.505 125.011 154.573 125.011 154.641C125.011 154.947 125.232 155.151 125.521 155.151C125.81 155.151 126.048 154.947 126.048 154.641C126.048 154.437 125.946 154.267 125.776 154.182L126.371 151.207H125.963ZM128.054 151.207L127.136 154.437C127.119 154.505 127.102 154.573 127.102 154.641C127.102 154.947 127.323 155.151 127.612 155.151C127.918 155.151 128.139 154.947 128.139 154.641C128.139 154.437 128.037 154.267 127.884 154.182L128.462 151.207H128.054ZM132.904 161.849C133.057 162.563 133.55 162.92 134.094 162.92C134.638 162.92 135.114 162.546 135.284 161.849L137.477 152.448C137.545 152.159 137.715 152.023 137.902 152.023C138.106 152.023 138.276 152.159 138.344 152.448L140.656 161.764C140.86 162.529 141.319 162.903 141.897 162.903C142.475 162.903 142.9 162.495 143.036 161.781L145.059 151.428H144.447L142.441 161.679C142.373 162.104 142.152 162.325 141.863 162.325C141.574 162.325 141.319 162.087 141.2 161.628L138.871 152.278C138.735 151.734 138.344 151.462 137.902 151.462C137.477 151.462 137.069 151.734 136.95 152.295L134.757 161.662C134.638 162.121 134.383 162.359 134.077 162.359C133.805 162.359 133.584 162.138 133.499 161.713L131.221 151.428H130.592L132.904 161.849ZM150.3 162.903C151.711 162.903 152.969 162.291 153.734 160.982L153.258 160.693C152.595 161.849 151.49 162.325 150.3 162.325C148.294 162.325 146.832 160.778 146.764 158.823H153.989V158.381C153.989 156.035 152.425 154.386 150.113 154.386C147.767 154.386 146.152 156.29 146.152 158.653C146.152 161.033 147.937 162.903 150.3 162.903ZM146.781 158.313C146.917 156.443 148.192 154.964 150.113 154.964C152.017 154.964 153.394 156.307 153.394 158.313H146.781ZM162.227 162.75V158.585C162.227 156.511 163.655 154.964 165.542 154.964C167.633 154.964 168.687 156.596 168.687 158.483V162.75H169.282V158.449C169.282 156.052 167.871 154.386 165.593 154.386C164.046 154.386 162.754 155.27 162.227 156.562V150.799H161.632V162.75H162.227ZM175.752 162.903C177.452 162.903 178.846 161.917 179.475 160.489V162.75H180.053V158.636C180.053 156.256 178.166 154.386 175.803 154.386C173.372 154.386 171.553 156.307 171.553 158.636C171.553 160.982 173.389 162.903 175.752 162.903ZM175.803 162.325C173.78 162.325 172.165 160.659 172.165 158.636C172.165 156.63 173.78 154.964 175.803 154.964C177.826 154.964 179.458 156.63 179.458 158.636C179.458 160.659 177.826 162.325 175.803 162.325ZM184.657 162.121C184.861 162.648 185.286 162.92 185.745 162.92C186.221 162.92 186.629 162.648 186.833 162.121L189.689 154.556H189.06L186.272 161.934C186.17 162.206 185.983 162.342 185.745 162.342C185.524 162.342 185.32 162.206 185.218 161.934L182.43 154.556H181.801L184.657 162.121ZM194.876 162.903C196.287 162.903 197.545 162.291 198.31 160.982L197.834 160.693C197.171 161.849 196.066 162.325 194.876 162.325C192.87 162.325 191.408 160.778 191.34 158.823H198.565V158.381C198.565 156.035 197.001 154.386 194.689 154.386C192.343 154.386 190.728 156.29 190.728 158.653C190.728 161.033 192.513 162.903 194.876 162.903ZM191.357 158.313C191.493 156.443 192.768 154.964 194.689 154.964C196.593 154.964 197.97 156.307 197.97 158.313H191.357ZM209.42 162.903C211.12 162.903 212.514 161.917 213.143 160.489V162.75H213.721V158.636C213.721 156.256 211.834 154.386 209.471 154.386C207.04 154.386 205.221 156.307 205.221 158.636C205.221 160.982 207.057 162.903 209.42 162.903ZM209.471 162.325C207.448 162.325 205.833 160.659 205.833 158.636C205.833 156.63 207.448 154.964 209.471 154.964C211.494 154.964 213.126 156.63 213.126 158.636C213.126 160.659 211.494 162.325 209.471 162.325ZM219.242 162.869C220.772 162.869 222.115 161.985 222.115 160.557C222.115 157.446 217.134 159.129 217.134 156.698C217.134 155.695 218.137 155.049 219.191 155.049C220.109 155.049 220.925 155.355 221.418 156.256L221.928 155.967C221.367 154.964 220.364 154.471 219.174 154.471C217.763 154.471 216.522 155.372 216.522 156.698C216.522 159.775 221.503 158.058 221.503 160.557C221.503 161.662 220.449 162.291 219.225 162.291C218.171 162.291 217.287 161.866 216.76 160.829L216.25 161.118C216.845 162.291 217.967 162.869 219.242 162.869ZM227.211 162.869C228.741 162.869 230.084 161.985 230.084 160.557C230.084 157.446 225.103 159.129 225.103 156.698C225.103 155.695 226.106 155.049 227.16 155.049C228.078 155.049 228.894 155.355 229.387 156.256L229.897 155.967C229.336 154.964 228.333 154.471 227.143 154.471C225.732 154.471 224.491 155.372 224.491 156.698C224.491 159.775 229.472 158.058 229.472 160.557C229.472 161.662 228.418 162.291 227.194 162.291C226.14 162.291 225.256 161.866 224.729 160.829L224.219 161.118C224.814 162.291 225.936 162.869 227.211 162.869ZM236.097 162.903C237.508 162.903 238.766 162.291 239.531 160.982L239.055 160.693C238.392 161.849 237.287 162.325 236.097 162.325C234.091 162.325 232.629 160.778 232.561 158.823H239.786V158.381C239.786 156.035 238.222 154.386 235.91 154.386C233.564 154.386 231.949 156.29 231.949 158.653C231.949 161.033 233.734 162.903 236.097 162.903ZM232.578 158.313C232.714 156.443 233.989 154.964 235.91 154.964C237.814 154.964 239.191 156.307 239.191 158.313H232.578ZM252.119 154.386C250.419 154.386 249.263 155.491 248.923 157.021C248.6 155.491 247.376 154.386 245.625 154.386C243.466 154.386 242.174 156.137 242.174 158.432V162.75H242.769V158.466C242.769 156.596 243.738 154.964 245.659 154.964C247.529 154.964 248.617 156.511 248.617 158.415V162.75H249.212V158.398C249.212 156.511 250.283 154.964 252.102 154.964C254.023 154.964 255.043 156.596 255.043 158.483V162.75H255.638V158.415C255.638 156.137 254.329 154.386 252.119 154.386ZM262.844 162.92C265.258 162.92 267.077 160.999 267.077 158.67C267.077 156.307 265.241 154.386 262.861 154.386C261.212 154.386 259.835 155.338 259.172 156.698V150.799H258.577V158.67C258.577 161.033 260.481 162.92 262.844 162.92ZM262.844 162.342C260.804 162.342 259.189 160.676 259.189 158.67C259.189 156.647 260.804 154.964 262.844 154.964C264.867 154.964 266.482 156.647 266.482 158.67C266.482 160.676 264.867 162.342 262.844 162.342ZM269.708 150.799V162.75H270.303V150.799H269.708ZM277.087 162.903C278.498 162.903 279.756 162.291 280.521 160.982L280.045 160.693C279.382 161.849 278.277 162.325 277.087 162.325C275.081 162.325 273.619 160.778 273.551 158.823H280.776V158.381C280.776 156.035 279.212 154.386 276.9 154.386C274.554 154.386 272.939 156.29 272.939 158.653C272.939 161.033 274.724 162.903 277.087 162.903ZM273.568 158.313C273.704 156.443 274.979 154.964 276.9 154.964C278.804 154.964 280.181 156.307 280.181 158.313H273.568ZM286.768 162.92C289.131 162.92 291.018 161.033 291.018 158.67V150.799H290.423L290.406 156.647C289.743 155.321 288.366 154.386 286.751 154.386C284.371 154.386 282.518 156.307 282.518 158.67C282.518 160.999 284.337 162.92 286.768 162.92ZM286.768 162.342C284.745 162.342 283.13 160.676 283.13 158.67C283.13 156.647 284.745 154.964 286.768 154.964C288.791 154.964 290.423 156.647 290.423 158.67C290.423 160.676 288.791 162.342 286.768 162.342ZM302.422 162.903C304.122 162.903 305.516 161.917 306.145 160.489V162.75H306.723V158.636C306.723 156.256 304.836 154.386 302.473 154.386C300.042 154.386 298.223 156.307 298.223 158.636C298.223 160.982 300.059 162.903 302.422 162.903ZM302.473 162.325C300.45 162.325 298.835 160.659 298.835 158.636C298.835 156.63 300.45 154.964 302.473 154.964C304.496 154.964 306.128 156.63 306.128 158.636C306.128 160.659 304.496 162.325 302.473 162.325ZM102.213 189.903C103.624 189.903 104.899 189.291 105.647 187.982L105.137 187.676C104.474 188.832 103.42 189.325 102.213 189.325C100.343 189.325 98.7278 187.659 98.7278 185.653C98.7278 183.647 100.343 181.964 102.213 181.964C103.42 181.964 104.474 182.474 105.137 183.63L105.647 183.324C104.899 182.015 103.624 181.386 102.213 181.386C100.02 181.386 98.1158 183.29 98.1158 185.653C98.1158 188.016 100.02 189.92 102.213 189.903ZM108.371 189.75V184.616C108.371 183.069 109.238 182.049 110.598 182.049C111.074 182.049 111.533 182.168 111.941 182.423V181.794C111.516 181.573 111.057 181.471 110.564 181.471C108.864 181.471 107.776 182.729 107.776 184.582V189.75H108.371ZM116.774 189.903C118.185 189.903 119.443 189.291 120.208 187.982L119.732 187.693C119.069 188.849 117.964 189.325 116.774 189.325C114.768 189.325 113.306 187.778 113.238 185.823H120.463V185.381C120.463 183.035 118.899 181.386 116.587 181.386C114.241 181.386 112.626 183.29 112.626 185.653C112.626 188.033 114.411 189.903 116.774 189.903ZM113.255 185.313C113.391 183.443 114.666 181.964 116.587 181.964C118.491 181.964 119.868 183.307 119.868 185.313H113.255ZM126.404 189.903C128.104 189.903 129.498 188.917 130.127 187.489V189.75H130.705V185.636C130.705 183.256 128.818 181.386 126.455 181.386C124.024 181.386 122.205 183.307 122.205 185.636C122.205 187.982 124.041 189.903 126.404 189.903ZM126.455 189.325C124.432 189.325 122.817 187.659 122.817 185.636C122.817 183.63 124.432 181.964 126.455 181.964C128.478 181.964 130.11 183.63 130.11 185.636C130.11 187.659 128.478 189.325 126.455 189.325ZM136.651 189.92C137.263 189.92 137.841 189.699 138.266 189.359V188.73C137.858 189.104 137.314 189.342 136.685 189.342C135.529 189.342 134.781 188.56 134.781 187.234V182.117H138.266V181.556H134.781V179.363H134.186V181.556H132.35V182.117H134.186V187.251C134.186 188.883 135.138 189.92 136.651 189.92ZM141.692 179.312C141.998 179.312 142.202 179.091 142.202 178.785C142.202 178.462 141.998 178.241 141.692 178.241C141.403 178.241 141.182 178.462 141.182 178.785C141.182 179.091 141.403 179.312 141.692 179.312ZM141.386 181.556V189.75H141.981V181.556H141.386ZM146.963 189.121C147.167 189.648 147.592 189.92 148.051 189.92C148.527 189.92 148.935 189.648 149.139 189.121L151.995 181.556H151.366L148.578 188.934C148.476 189.206 148.289 189.342 148.051 189.342C147.83 189.342 147.626 189.206 147.524 188.934L144.736 181.556H144.107L146.963 189.121ZM157.182 189.903C158.593 189.903 159.851 189.291 160.616 187.982L160.14 187.693C159.477 188.849 158.372 189.325 157.182 189.325C155.176 189.325 153.714 187.778 153.646 185.823H160.871V185.381C160.871 183.035 159.307 181.386 156.995 181.386C154.649 181.386 153.034 183.29 153.034 185.653C153.034 188.033 154.819 189.903 157.182 189.903ZM153.663 185.313C153.799 183.443 155.074 181.964 156.995 181.964C158.899 181.964 160.276 183.307 160.276 185.313H153.663ZM171.182 189.92C171.794 189.92 172.372 189.699 172.797 189.359V188.73C172.389 189.104 171.845 189.342 171.216 189.342C170.06 189.342 169.312 188.56 169.312 187.234V182.117H172.797V181.556H169.312V179.363H168.717V181.556H166.881V182.117H168.717V187.251C168.717 188.883 169.669 189.92 171.182 189.92ZM178.78 189.903C180.191 189.903 181.449 189.291 182.214 187.982L181.738 187.693C181.075 188.849 179.97 189.325 178.78 189.325C176.774 189.325 175.312 187.778 175.244 185.823H182.469V185.381C182.469 183.035 180.905 181.386 178.593 181.386C176.247 181.386 174.632 183.29 174.632 185.653C174.632 188.033 176.417 189.903 178.78 189.903ZM175.261 185.313C175.397 183.443 176.672 181.964 178.593 181.964C180.497 181.964 181.874 183.307 181.874 185.313H175.261ZM188.411 189.903C190.111 189.903 191.505 188.917 192.134 187.489V189.75H192.712V185.636C192.712 183.256 190.825 181.386 188.462 181.386C186.031 181.386 184.212 183.307 184.212 185.636C184.212 187.982 186.048 189.903 188.411 189.903ZM188.462 189.325C186.439 189.325 184.824 187.659 184.824 185.636C184.824 183.63 186.439 181.964 188.462 181.964C190.485 181.964 192.117 183.63 192.117 185.636C192.117 187.659 190.485 189.325 188.462 189.325ZM205.594 181.386C203.894 181.386 202.738 182.491 202.398 184.021C202.075 182.491 200.851 181.386 199.1 181.386C196.941 181.386 195.649 183.137 195.649 185.432V189.75H196.244V185.466C196.244 183.596 197.213 181.964 199.134 181.964C201.004 181.964 202.092 183.511 202.092 185.415V189.75H202.687V185.398C202.687 183.511 203.758 181.964 205.577 181.964C207.498 181.964 208.518 183.596 208.518 185.483V189.75H209.113V185.415C209.113 183.137 207.804 181.386 205.594 181.386ZM220.586 189.903C222.966 189.903 224.819 187.982 224.819 185.636C224.819 183.307 223 181.386 220.586 181.386C218.223 181.386 216.319 183.29 216.319 185.636C216.319 187.982 218.189 189.903 220.586 189.903ZM220.586 189.325C218.546 189.325 216.931 187.659 216.931 185.636C216.931 183.63 218.546 181.964 220.586 181.964C222.592 181.964 224.224 183.63 224.224 185.636C224.224 187.659 222.592 189.325 220.586 189.325ZM228.554 189.75V182.117H231.852V181.556H228.554V180.349C228.554 179.04 229.302 178.258 230.509 178.258C231.036 178.258 231.512 178.411 231.886 178.666V178.037C231.478 177.816 231.002 177.697 230.475 177.697C228.911 177.697 227.959 178.785 227.959 180.332V181.556H226.276V182.117H227.959V189.75H228.554ZM238.738 177.799V189.75H239.333V177.799H238.738ZM243.26 179.312C243.566 179.312 243.77 179.091 243.77 178.785C243.77 178.462 243.566 178.241 243.26 178.241C242.971 178.241 242.75 178.462 242.75 178.785C242.75 179.091 242.971 179.312 243.26 179.312ZM242.954 181.556V189.75H243.549V181.556H242.954ZM247.617 189.75V185.925H248.994C249.045 186.231 249.215 186.503 249.47 186.758L252.666 189.75H253.499L249.878 186.35C249.657 186.146 249.521 185.891 249.521 185.653C249.521 185.398 249.657 185.16 249.878 184.939L253.499 181.556H252.7L249.487 184.548C249.215 184.803 249.062 185.075 248.994 185.364H247.617V177.782H247.022V189.75H247.617ZM258.651 189.903C260.062 189.903 261.32 189.291 262.085 187.982L261.609 187.693C260.946 188.849 259.841 189.325 258.651 189.325C256.645 189.325 255.183 187.778 255.115 185.823H262.34V185.381C262.34 183.035 260.776 181.386 258.464 181.386C256.118 181.386 254.503 183.29 254.503 185.653C254.503 188.033 256.288 189.903 258.651 189.903ZM255.132 185.313C255.268 183.443 256.543 181.964 258.464 181.964C260.368 181.964 261.745 183.307 261.745 185.313H255.132ZM270.457 184.174H265.136V184.752L270.457 184.735V184.174ZM283.737 181.386C282.037 181.386 280.881 182.491 280.541 184.021C280.218 182.491 278.994 181.386 277.243 181.386C275.084 181.386 273.792 183.137 273.792 185.432V189.75H274.387V185.466C274.387 183.596 275.356 181.964 277.277 181.964C279.147 181.964 280.235 183.511 280.235 185.415V189.75H280.83V185.398C280.83 183.511 281.901 181.964 283.72 181.964C285.641 181.964 286.661 183.596 286.661 185.483V189.75H287.256V185.415C287.256 183.137 285.947 181.386 283.737 181.386ZM290.84 179.312C291.146 179.312 291.35 179.091 291.35 178.785C291.35 178.462 291.146 178.241 290.84 178.241C290.551 178.241 290.33 178.462 290.33 178.785C290.33 179.091 290.551 179.312 290.84 179.312ZM290.534 181.556V189.75H291.129V181.556H290.534ZM298.202 181.964C300.293 181.964 301.483 183.63 301.483 185.551V189.75H302.078V185.5C302.078 183.154 300.599 181.386 298.202 181.386C295.856 181.386 294.411 183.171 294.411 185.517V189.75H295.006V185.534C295.006 183.63 296.162 181.964 298.202 181.964ZM308.607 189.92C310.97 189.92 312.857 188.033 312.857 185.67V177.799H312.262L312.245 183.647C311.582 182.321 310.205 181.386 308.59 181.386C306.21 181.386 304.357 183.307 304.357 185.67C304.357 187.999 306.176 189.92 308.607 189.92ZM308.607 189.342C306.584 189.342 304.969 187.676 304.969 185.67C304.969 183.647 306.584 181.964 308.607 181.964C310.63 181.964 312.262 183.647 312.262 185.67C312.262 187.676 310.63 189.342 308.607 189.342ZM319.296 189.903C320.707 189.903 321.965 189.291 322.73 187.982L322.254 187.693C321.591 188.849 320.486 189.325 319.296 189.325C317.29 189.325 315.828 187.778 315.76 185.823H322.985V185.381C322.985 183.035 321.421 181.386 319.109 181.386C316.763 181.386 315.148 183.29 315.148 185.653C315.148 188.033 316.933 189.903 319.296 189.903ZM315.777 185.313C315.913 183.443 317.188 181.964 319.109 181.964C321.013 181.964 322.39 183.307 322.39 185.313H315.777ZM328.977 189.92C331.34 189.92 333.227 188.033 333.227 185.67V177.799H332.632L332.615 183.647C331.952 182.321 330.575 181.386 328.96 181.386C326.58 181.386 324.727 183.307 324.727 185.67C324.727 187.999 326.546 189.92 328.977 189.92ZM328.977 189.342C326.954 189.342 325.339 187.676 325.339 185.67C325.339 183.647 326.954 181.964 328.977 181.964C331 181.964 332.632 183.647 332.632 185.67C332.632 187.676 331 189.342 328.977 189.342ZM101.814 220.507L101.831 214.625C102.494 215.985 103.871 216.92 105.503 216.92C107.883 216.92 109.719 214.999 109.719 212.636C109.719 210.307 107.9 208.386 105.486 208.386C103.123 208.386 101.219 210.256 101.219 212.636V220.507H101.814ZM105.486 216.342C103.446 216.342 101.831 214.659 101.831 212.636C101.831 210.63 103.446 208.964 105.486 208.964C107.509 208.964 109.124 210.63 109.124 212.636C109.124 214.659 107.509 216.342 105.486 216.342ZM115.512 216.903C116.923 216.903 118.181 216.291 118.946 214.982L118.47 214.693C117.807 215.849 116.702 216.325 115.512 216.325C113.506 216.325 112.044 214.778 111.976 212.823H119.201V212.381C119.201 210.035 117.637 208.386 115.325 208.386C112.979 208.386 111.364 210.29 111.364 212.653C111.364 215.033 113.149 216.903 115.512 216.903ZM111.993 212.313C112.129 210.443 113.404 208.964 115.325 208.964C117.229 208.964 118.606 210.307 118.606 212.313H111.993ZM125.21 216.903C127.59 216.903 129.443 214.982 129.443 212.636C129.443 210.307 127.624 208.386 125.21 208.386C122.847 208.386 120.943 210.29 120.943 212.636C120.943 214.982 122.813 216.903 125.21 216.903ZM125.21 216.325C123.17 216.325 121.555 214.659 121.555 212.636C121.555 210.63 123.17 208.964 125.21 208.964C127.216 208.964 128.848 210.63 128.848 212.636C128.848 214.659 127.216 216.325 125.21 216.325ZM132.311 220.507L132.328 214.625C132.991 215.985 134.368 216.92 136 216.92C138.38 216.92 140.216 214.999 140.216 212.636C140.216 210.307 138.397 208.386 135.983 208.386C133.62 208.386 131.716 210.256 131.716 212.636V220.507H132.311ZM135.983 216.342C133.943 216.342 132.328 214.659 132.328 212.636C132.328 210.63 133.943 208.964 135.983 208.964C138.006 208.964 139.621 210.63 139.621 212.636C139.621 214.659 138.006 216.342 135.983 216.342ZM142.847 204.799V216.75H143.442V204.799H142.847ZM150.226 216.903C151.637 216.903 152.895 216.291 153.66 214.982L153.184 214.693C152.521 215.849 151.416 216.325 150.226 216.325C148.22 216.325 146.758 214.778 146.69 212.823H153.915V212.381C153.915 210.035 152.351 208.386 150.039 208.386C147.693 208.386 146.078 210.29 146.078 212.653C146.078 215.033 147.863 216.903 150.226 216.903ZM146.707 212.313C146.843 210.443 148.118 208.964 150.039 208.964C151.943 208.964 153.32 210.307 153.32 212.313H146.707ZM162.759 216.92C163.303 216.92 163.762 216.563 163.932 215.849L165.462 209.593C165.564 209.168 165.836 208.93 166.125 208.93C166.431 208.93 166.72 209.168 166.822 209.593L168.335 215.849C168.505 216.563 168.947 216.92 169.508 216.92C170.069 216.92 170.545 216.546 170.715 215.798L172.364 208.556H171.786L170.171 215.679C170.069 216.121 169.814 216.359 169.508 216.359C169.219 216.359 168.981 216.138 168.879 215.73L167.366 209.491C167.179 208.743 166.703 208.386 166.142 208.386C165.581 208.386 165.105 208.743 164.918 209.491L163.388 215.73C163.286 216.138 163.031 216.359 162.759 216.359C162.453 216.359 162.198 216.121 162.096 215.679L160.464 208.556H159.886L161.535 215.798C161.705 216.529 162.181 216.92 162.759 216.92ZM175.383 216.75V212.585C175.383 210.511 176.811 208.964 178.698 208.964C180.789 208.964 181.843 210.596 181.843 212.483V216.75H182.438V212.449C182.438 210.052 181.027 208.386 178.749 208.386C177.202 208.386 175.91 209.27 175.383 210.562V204.799H174.788V216.75H175.383ZM188.977 216.903C191.357 216.903 193.21 214.982 193.21 212.636C193.21 210.307 191.391 208.386 188.977 208.386C186.614 208.386 184.71 210.29 184.71 212.636C184.71 214.982 186.58 216.903 188.977 216.903ZM188.977 216.325C186.937 216.325 185.322 214.659 185.322 212.636C185.322 210.63 186.937 208.964 188.977 208.964C190.983 208.964 192.615 210.63 192.615 212.636C192.615 214.659 190.983 216.325 188.977 216.325ZM200.737 204.799V216.75H201.332V204.799H200.737ZM205.259 206.312C205.565 206.312 205.769 206.091 205.769 205.785C205.769 205.462 205.565 205.241 205.259 205.241C204.97 205.241 204.749 205.462 204.749 205.785C204.749 206.091 204.97 206.312 205.259 206.312ZM204.953 208.556V216.75H205.548V208.556H204.953ZM209.616 216.75V212.925H210.993C211.044 213.231 211.214 213.503 211.469 213.758L214.665 216.75H215.498L211.877 213.35C211.656 213.146 211.52 212.891 211.52 212.653C211.52 212.398 211.656 212.16 211.877 211.939L215.498 208.556H214.699L211.486 211.548C211.214 211.803 211.061 212.075 210.993 212.364H209.616V204.782H209.021V216.75H209.616ZM220.65 216.903C222.061 216.903 223.319 216.291 224.084 214.982L223.608 214.693C222.945 215.849 221.84 216.325 220.65 216.325C218.644 216.325 217.182 214.778 217.114 212.823H224.339V212.381C224.339 210.035 222.775 208.386 220.463 208.386C218.117 208.386 216.502 210.29 216.502 212.653C216.502 215.033 218.287 216.903 220.65 216.903ZM217.131 212.313C217.267 210.443 218.542 208.964 220.463 208.964C222.367 208.964 223.744 210.307 223.744 212.313H217.131ZM234.65 216.92C235.262 216.92 235.84 216.699 236.265 216.359V215.73C235.857 216.104 235.313 216.342 234.684 216.342C233.528 216.342 232.78 215.56 232.78 214.234V209.117H236.265V208.556H232.78V206.363H232.185V208.556H230.349V209.117H232.185V214.251C232.185 215.883 233.137 216.92 234.65 216.92ZM242.367 216.903C244.747 216.903 246.6 214.982 246.6 212.636C246.6 210.307 244.781 208.386 242.367 208.386C240.004 208.386 238.1 210.29 238.1 212.636C238.1 214.982 239.97 216.903 242.367 216.903ZM242.367 216.325C240.327 216.325 238.712 214.659 238.712 212.636C238.712 210.63 240.327 208.964 242.367 208.964C244.373 208.964 246.005 210.63 246.005 212.636C246.005 214.659 244.373 216.325 242.367 216.325ZM257.238 216.903C258.649 216.903 259.924 216.291 260.672 214.982L260.162 214.676C259.499 215.832 258.445 216.325 257.238 216.325C255.368 216.325 253.753 214.659 253.753 212.653C253.753 210.647 255.368 208.964 257.238 208.964C258.445 208.964 259.499 209.474 260.162 210.63L260.672 210.324C259.924 209.015 258.649 208.386 257.238 208.386C255.045 208.386 253.141 210.29 253.141 212.653C253.141 215.016 255.045 216.92 257.238 216.903ZM263.737 216.75V212.585C263.737 210.511 265.165 208.964 267.052 208.964C269.143 208.964 270.197 210.596 270.197 212.483V216.75H270.792V212.449C270.792 210.052 269.381 208.386 267.103 208.386C265.556 208.386 264.264 209.27 263.737 210.562V204.799H263.142V216.75H263.737ZM277.262 216.903C278.962 216.903 280.356 215.917 280.985 214.489V216.75H281.563V212.636C281.563 210.256 279.676 208.386 277.313 208.386C274.882 208.386 273.063 210.307 273.063 212.636C273.063 214.982 274.899 216.903 277.262 216.903ZM277.313 216.325C275.29 216.325 273.675 214.659 273.675 212.636C273.675 210.63 275.29 208.964 277.313 208.964C279.336 208.964 280.968 210.63 280.968 212.636C280.968 214.659 279.336 216.325 277.313 216.325ZM284.84 204.799V216.75H285.435V204.799H284.84ZM289.057 204.799V216.75H289.652V204.799H289.057ZM296.436 216.903C297.847 216.903 299.105 216.291 299.87 214.982L299.394 214.693C298.731 215.849 297.626 216.325 296.436 216.325C294.43 216.325 292.968 214.778 292.9 212.823H300.125V212.381C300.125 210.035 298.561 208.386 296.249 208.386C293.903 208.386 292.288 210.29 292.288 212.653C292.288 215.033 294.073 216.903 296.436 216.903ZM292.917 212.313C293.053 210.443 294.328 208.964 296.249 208.964C298.153 208.964 299.53 210.307 299.53 212.313H292.917ZM306.304 208.964C308.395 208.964 309.585 210.63 309.585 212.551V216.75H310.18V212.5C310.18 210.154 308.701 208.386 306.304 208.386C303.958 208.386 302.513 210.171 302.513 212.517V216.75H303.108V212.534C303.108 210.63 304.264 208.964 306.304 208.964ZM316.862 220.677C319.395 220.677 321.18 218.875 321.18 216.121V212.636C321.18 210.256 319.293 208.386 316.93 208.386C314.499 208.386 312.68 210.307 312.68 212.636C312.68 214.982 314.533 216.903 316.879 216.903C318.579 216.903 319.956 215.917 320.568 214.54L320.585 216.053C320.602 218.467 319.055 220.099 316.845 220.099C315.502 220.099 314.261 219.538 313.598 218.382L313.088 218.688C313.836 219.997 315.298 220.677 316.862 220.677ZM316.93 216.325C314.907 216.325 313.292 214.659 313.292 212.636C313.292 210.613 314.907 208.964 316.93 208.964C318.953 208.964 320.568 210.613 320.568 212.636C320.568 214.659 318.953 216.325 316.93 216.325ZM327.63 216.903C329.041 216.903 330.299 216.291 331.064 214.982L330.588 214.693C329.925 215.849 328.82 216.325 327.63 216.325C325.624 216.325 324.162 214.778 324.094 212.823H331.319V212.381C331.319 210.035 329.755 208.386 327.443 208.386C325.097 208.386 323.482 210.29 323.482 212.653C323.482 215.033 325.267 216.903 327.63 216.903ZM324.111 212.313C324.247 210.443 325.522 208.964 327.443 208.964C329.347 208.964 330.724 210.307 330.724 212.313H324.111ZM101.289 243.92C101.901 243.92 102.479 243.699 102.904 243.359V242.73C102.496 243.104 101.952 243.342 101.323 243.342C100.167 243.342 99.4194 242.56 99.4194 241.234V236.117H102.904V235.556H99.4194V233.363H98.8244V235.556H96.9884V236.117H98.8244V241.251C98.8244 242.883 99.7764 243.92 101.289 243.92ZM106.62 243.75V239.585C106.62 237.511 108.048 235.964 109.935 235.964C112.026 235.964 113.08 237.596 113.08 239.483V243.75H113.675V239.449C113.675 237.052 112.264 235.386 109.986 235.386C108.439 235.386 107.147 236.27 106.62 237.562V231.799H106.025V243.75H106.62ZM120.094 243.903C121.505 243.903 122.763 243.291 123.528 241.982L123.052 241.693C122.389 242.849 121.284 243.325 120.094 243.325C118.088 243.325 116.626 241.778 116.558 239.823H123.783V239.381C123.783 237.035 122.219 235.386 119.907 235.386C117.561 235.386 115.946 237.29 115.946 239.653C115.946 242.033 117.731 243.903 120.094 243.903ZM116.575 239.313C116.711 237.443 117.986 235.964 119.907 235.964C121.811 235.964 123.188 237.307 123.188 239.313H116.575ZM136.116 235.386C134.416 235.386 133.26 236.491 132.92 238.021C132.597 236.491 131.373 235.386 129.622 235.386C127.463 235.386 126.171 237.137 126.171 239.432V243.75H126.766V239.466C126.766 237.596 127.735 235.964 129.656 235.964C131.526 235.964 132.614 237.511 132.614 239.415V243.75H133.209V239.398C133.209 237.511 134.28 235.964 136.099 235.964C138.02 235.964 139.04 237.596 139.04 239.483V243.75H139.635V239.415C139.635 237.137 138.326 235.386 136.116 235.386ZM145.157 243.869C146.687 243.869 148.03 242.985 148.03 241.557C148.03 238.446 143.049 240.129 143.049 237.698C143.049 236.695 144.052 236.049 145.106 236.049C146.024 236.049 146.84 236.355 147.333 237.256L147.843 236.967C147.282 235.964 146.279 235.471 145.089 235.471C143.678 235.471 142.437 236.372 142.437 237.698C142.437 240.775 147.418 239.058 147.418 241.557C147.418 242.662 146.364 243.291 145.14 243.291C144.086 243.291 143.202 242.866 142.675 241.829L142.165 242.118C142.76 243.291 143.882 243.869 145.157 243.869ZM154.044 243.903C155.455 243.903 156.713 243.291 157.478 241.982L157.002 241.693C156.339 242.849 155.234 243.325 154.044 243.325C152.038 243.325 150.576 241.778 150.508 239.823H157.733V239.381C157.733 237.035 156.169 235.386 153.857 235.386C151.511 235.386 149.896 237.29 149.896 239.653C149.896 242.033 151.681 243.903 154.044 243.903ZM150.525 239.313C150.661 237.443 151.936 235.964 153.857 235.964C155.761 235.964 157.138 237.307 157.138 239.313H150.525ZM160.461 231.799V243.75H161.056V231.799H160.461ZM166.038 243.121C166.242 243.648 166.667 243.92 167.126 243.92C167.602 243.92 168.01 243.648 168.214 243.121L171.07 235.556H170.441L167.653 242.934C167.551 243.206 167.364 243.342 167.126 243.342C166.905 243.342 166.701 243.206 166.599 242.934L163.811 235.556H163.182L166.038 243.121ZM176.257 243.903C177.668 243.903 178.926 243.291 179.691 241.982L179.215 241.693C178.552 242.849 177.447 243.325 176.257 243.325C174.251 243.325 172.789 241.778 172.721 239.823H179.946V239.381C179.946 237.035 178.382 235.386 176.07 235.386C173.724 235.386 172.109 237.29 172.109 239.653C172.109 242.033 173.894 243.903 176.257 243.903ZM172.738 239.313C172.874 237.443 174.149 235.964 176.07 235.964C177.974 235.964 179.351 237.307 179.351 239.313H172.738ZM184.918 243.869C186.448 243.869 187.791 242.985 187.791 241.557C187.791 238.446 182.81 240.129 182.81 237.698C182.81 236.695 183.813 236.049 184.867 236.049C185.785 236.049 186.601 236.355 187.094 237.256L187.604 236.967C187.043 235.964 186.04 235.471 184.85 235.471C183.439 235.471 182.198 236.372 182.198 237.698C182.198 240.775 187.179 239.058 187.179 241.557C187.179 242.662 186.125 243.291 184.901 243.291C183.847 243.291 182.963 242.866 182.436 241.829L181.926 242.118C182.521 243.291 183.643 243.869 184.918 243.869ZM199.994 232.853C201.167 232.853 202.051 233.533 202.544 234.655L203.054 234.383C202.476 233.125 201.473 232.275 199.96 232.275C198.362 232.275 197.104 233.431 197.104 234.995C197.104 235.879 197.444 236.678 197.971 237.392C196.373 237.851 195.2 239.024 195.2 240.673C195.2 242.56 196.815 243.92 199.161 243.92C200.691 243.92 201.983 243.308 202.952 242.322L204.448 243.75H205.298L203.343 241.88C204.108 240.962 204.635 239.789 204.89 238.497L204.329 238.31C204.091 239.551 203.598 240.639 202.935 241.489L199.263 237.97C198.345 237.086 197.733 236.049 197.733 235.029C197.733 233.805 198.753 232.853 199.994 232.853ZM195.829 240.673C195.829 239.228 196.934 238.157 198.345 237.868C198.481 238.021 198.634 238.191 198.804 238.344L202.544 241.931C201.66 242.815 200.521 243.342 199.195 243.342C197.257 243.342 195.829 242.203 195.829 240.673ZM216.688 247.677C219.221 247.677 221.006 245.875 221.006 243.121V239.636C221.006 237.256 219.119 235.386 216.756 235.386C214.325 235.386 212.506 237.307 212.506 239.636C212.506 241.982 214.359 243.903 216.705 243.903C218.405 243.903 219.782 242.917 220.394 241.54L220.411 243.053C220.428 245.467 218.881 247.099 216.671 247.099C215.328 247.099 214.087 246.538 213.424 245.382L212.914 245.688C213.662 246.997 215.124 247.677 216.688 247.677ZM216.756 243.325C214.733 243.325 213.118 241.659 213.118 239.636C213.118 237.613 214.733 235.964 216.756 235.964C218.779 235.964 220.394 237.613 220.394 239.636C220.394 241.659 218.779 243.325 216.756 243.325ZM227.456 243.903C228.867 243.903 230.125 243.291 230.89 241.982L230.414 241.693C229.751 242.849 228.646 243.325 227.456 243.325C225.45 243.325 223.988 241.778 223.92 239.823H231.145V239.381C231.145 237.035 229.581 235.386 227.269 235.386C224.923 235.386 223.308 237.29 223.308 239.653C223.308 242.033 225.093 243.903 227.456 243.903ZM223.937 239.313C224.073 237.443 225.348 235.964 227.269 235.964C229.173 235.964 230.55 237.307 230.55 239.313H223.937ZM236.542 243.92C237.154 243.92 237.732 243.699 238.157 243.359V242.73C237.749 243.104 237.205 243.342 236.576 243.342C235.42 243.342 234.672 242.56 234.672 241.234V236.117H238.157V235.556H234.672V233.363H234.077V235.556H232.241V236.117H234.077V241.251C234.077 242.883 235.029 243.92 236.542 243.92ZM250.119 243.92C252.533 243.92 254.352 241.999 254.352 239.67C254.352 237.307 252.516 235.386 250.136 235.386C248.487 235.386 247.11 236.338 246.447 237.698V231.799H245.852V239.67C245.852 242.033 247.756 243.92 250.119 243.92ZM250.119 243.342C248.079 243.342 246.464 241.676 246.464 239.67C246.464 237.647 248.079 235.964 250.119 235.964C252.142 235.964 253.757 237.647 253.757 239.67C253.757 241.676 252.142 243.342 250.119 243.342ZM260.145 243.903C261.556 243.903 262.814 243.291 263.579 241.982L263.103 241.693C262.44 242.849 261.335 243.325 260.145 243.325C258.139 243.325 256.677 241.778 256.609 239.823H263.834V239.381C263.834 237.035 262.27 235.386 259.958 235.386C257.612 235.386 255.997 237.29 255.997 239.653C255.997 242.033 257.782 243.903 260.145 243.903ZM256.626 239.313C256.762 237.443 258.037 235.964 259.958 235.964C261.862 235.964 263.239 237.307 263.239 239.313H256.626ZM269.231 243.92C269.843 243.92 270.421 243.699 270.846 243.359V242.73C270.438 243.104 269.894 243.342 269.265 243.342C268.109 243.342 267.361 242.56 267.361 241.234V236.117H270.846V235.556H267.361V233.363H266.766V235.556H264.93V236.117H266.766V241.251C266.766 242.883 267.718 243.92 269.231 243.92ZM276.353 243.92C276.965 243.92 277.543 243.699 277.968 243.359V242.73C277.56 243.104 277.016 243.342 276.387 243.342C275.231 243.342 274.483 242.56 274.483 241.234V236.117H277.968V235.556H274.483V233.363H273.888V235.556H272.052V236.117H273.888V241.251C273.888 242.883 274.84 243.92 276.353 243.92ZM283.951 243.903C285.362 243.903 286.62 243.291 287.385 241.982L286.909 241.693C286.246 242.849 285.141 243.325 283.951 243.325C281.945 243.325 280.483 241.778 280.415 239.823H287.64V239.381C287.64 237.035 286.076 235.386 283.764 235.386C281.418 235.386 279.803 237.29 279.803 239.653C279.803 242.033 281.588 243.903 283.951 243.903ZM280.432 239.313C280.568 237.443 281.843 235.964 283.764 235.964C285.668 235.964 287.045 237.307 287.045 239.313H280.432ZM290.623 243.75V238.616C290.623 237.069 291.49 236.049 292.85 236.049C293.326 236.049 293.785 236.168 294.193 236.423V235.794C293.768 235.573 293.309 235.471 292.816 235.471C291.116 235.471 290.028 236.729 290.028 238.582V243.75H290.623ZM302.428 243.92C302.972 243.92 303.431 243.563 303.601 242.849L305.131 236.593C305.233 236.168 305.505 235.93 305.794 235.93C306.1 235.93 306.389 236.168 306.491 236.593L308.004 242.849C308.174 243.563 308.616 243.92 309.177 243.92C309.738 243.92 310.214 243.546 310.384 242.798L312.033 235.556H311.455L309.84 242.679C309.738 243.121 309.483 243.359 309.177 243.359C308.888 243.359 308.65 243.138 308.548 242.73L307.035 236.491C306.848 235.743 306.372 235.386 305.811 235.386C305.25 235.386 304.774 235.743 304.587 236.491L303.057 242.73C302.955 243.138 302.7 243.359 302.428 243.359C302.122 243.359 301.867 243.121 301.765 242.679L300.133 235.556H299.555L301.204 242.798C301.374 243.529 301.85 243.92 302.428 243.92ZM314.763 233.312C315.069 233.312 315.273 233.091 315.273 232.785C315.273 232.462 315.069 232.241 314.763 232.241C314.474 232.241 314.253 232.462 314.253 232.785C314.253 233.091 314.474 233.312 314.763 233.312ZM314.457 235.556V243.75H315.052V235.556H314.457ZM321.343 243.92C321.955 243.92 322.533 243.699 322.958 243.359V242.73C322.55 243.104 322.006 243.342 321.377 243.342C320.221 243.342 319.473 242.56 319.473 241.234V236.117H322.958V235.556H319.473V233.363H318.878V235.556H317.042V236.117H318.878V241.251C318.878 242.883 319.83 243.92 321.343 243.92ZM326.673 243.75V239.585C326.673 237.511 328.101 235.964 329.988 235.964C332.079 235.964 333.133 237.596 333.133 239.483V243.75H333.728V239.449C333.728 237.052 332.317 235.386 330.039 235.386C328.492 235.386 327.2 236.27 326.673 237.562V231.799H326.078V243.75H326.673ZM115.113 270.903C116.524 270.903 117.782 270.291 118.547 268.982L118.071 268.693C117.408 269.849 116.303 270.325 115.113 270.325C113.107 270.325 111.645 268.778 111.577 266.823H118.802V266.381C118.802 264.035 117.238 262.386 114.926 262.386C112.58 262.386 110.965 264.29 110.965 266.653C110.965 269.033 112.75 270.903 115.113 270.903ZM111.594 266.313C111.73 264.443 113.005 262.964 114.926 262.964C116.83 262.964 118.207 264.307 118.207 266.313H111.594ZM122.874 270.121C123.078 270.648 123.503 270.92 123.962 270.92C124.438 270.92 124.846 270.648 125.05 270.121L127.906 262.556H127.277L124.489 269.934C124.387 270.206 124.2 270.342 123.962 270.342C123.741 270.342 123.537 270.206 123.435 269.934L120.647 262.556H120.018L122.874 270.121ZM133.093 270.903C134.504 270.903 135.762 270.291 136.527 268.982L136.051 268.693C135.388 269.849 134.283 270.325 133.093 270.325C131.087 270.325 129.625 268.778 129.557 266.823H136.782V266.381C136.782 264.035 135.218 262.386 132.906 262.386C130.56 262.386 128.945 264.29 128.945 266.653C128.945 269.033 130.73 270.903 133.093 270.903ZM129.574 266.313C129.71 264.443 130.985 262.964 132.906 262.964C134.81 262.964 136.187 264.307 136.187 266.313H129.574ZM139.765 270.75V265.616C139.765 264.069 140.632 263.049 141.992 263.049C142.468 263.049 142.927 263.168 143.335 263.423V262.794C142.91 262.573 142.451 262.471 141.958 262.471C140.258 262.471 139.17 263.729 139.17 265.582V270.75H139.765ZM148.431 274.677C151.049 274.677 152.307 272.773 152.307 270.206V262.556H151.695V266.636C151.695 268.659 150.556 270.325 148.533 270.325C146.561 270.325 145.524 268.914 145.524 266.857V262.556H144.912V266.976C144.912 269.305 146.204 270.903 148.499 270.903C150.097 270.903 151.185 270.019 151.695 268.71L151.712 270.206C151.729 272.348 150.658 274.099 148.431 274.099C147.224 274.099 146 273.606 145.354 272.467L144.827 272.756C145.575 274.082 147.02 274.677 148.431 274.677ZM160.915 274.507L160.932 268.625C161.595 269.985 162.972 270.92 164.604 270.92C166.984 270.92 168.82 268.999 168.82 266.636C168.82 264.307 167.001 262.386 164.587 262.386C162.224 262.386 160.32 264.256 160.32 266.636V274.507H160.915ZM164.587 270.342C162.547 270.342 160.932 268.659 160.932 266.636C160.932 264.63 162.547 262.964 164.587 262.964C166.61 262.964 168.225 264.63 168.225 266.636C168.225 268.659 166.61 270.342 164.587 270.342ZM171.706 270.75V265.616C171.706 264.069 172.573 263.049 173.933 263.049C174.409 263.049 174.868 263.168 175.276 263.423V262.794C174.851 262.573 174.392 262.471 173.899 262.471C172.199 262.471 171.111 263.729 171.111 265.582V270.75H171.706ZM180.228 270.903C182.608 270.903 184.461 268.982 184.461 266.636C184.461 264.307 182.642 262.386 180.228 262.386C177.865 262.386 175.961 264.29 175.961 266.636C175.961 268.982 177.831 270.903 180.228 270.903ZM180.228 270.325C178.188 270.325 176.573 268.659 176.573 266.636C176.573 264.63 178.188 262.964 180.228 262.964C182.234 262.964 183.866 264.63 183.866 266.636C183.866 268.659 182.234 270.325 180.228 270.325ZM187.413 260.312C187.719 260.312 187.906 260.091 187.906 259.785C187.906 259.462 187.719 259.241 187.413 259.241C187.124 259.241 186.886 259.462 186.886 259.785C186.886 260.091 187.124 260.312 187.413 260.312ZM187.107 262.556V271.804C187.107 273.13 186.376 274.031 185.22 274.031V274.609C186.75 274.609 187.702 273.487 187.702 271.821V262.556H187.107ZM194.12 270.903C195.531 270.903 196.789 270.291 197.554 268.982L197.078 268.693C196.415 269.849 195.31 270.325 194.12 270.325C192.114 270.325 190.652 268.778 190.584 266.823H197.809V266.381C197.809 264.035 196.245 262.386 193.933 262.386C191.587 262.386 189.972 264.29 189.972 266.653C189.972 269.033 191.757 270.903 194.12 270.903ZM190.601 266.313C190.737 264.443 192.012 262.964 193.933 262.964C195.837 262.964 197.214 264.307 197.214 266.313H190.601ZM203.648 270.903C205.059 270.903 206.334 270.291 207.082 268.982L206.572 268.676C205.909 269.832 204.855 270.325 203.648 270.325C201.778 270.325 200.163 268.659 200.163 266.653C200.163 264.647 201.778 262.964 203.648 262.964C204.855 262.964 205.909 263.474 206.572 264.63L207.082 264.324C206.334 263.015 205.059 262.386 203.648 262.386C201.455 262.386 199.551 264.29 199.551 266.653C199.551 269.016 201.455 270.92 203.648 270.903ZM212.221 270.92C212.833 270.92 213.411 270.699 213.836 270.359V269.73C213.428 270.104 212.884 270.342 212.255 270.342C211.099 270.342 210.351 269.56 210.351 268.234V263.117H213.836V262.556H210.351V260.363H209.756V262.556H207.92V263.117H209.756V268.251C209.756 269.883 210.708 270.92 212.221 270.92ZM217.177 270.869C217.466 270.869 217.687 270.648 217.687 270.325C217.687 270.036 217.466 269.832 217.177 269.832C216.888 269.832 216.65 270.036 216.65 270.325C216.65 270.648 216.888 270.869 217.177 270.869ZM229.083 270.852C231.191 270.852 232.772 269.645 232.772 267.724C232.772 265.565 230.936 265.123 229.219 264.715C227.638 264.358 226.108 264.001 226.108 262.318C226.108 260.958 227.417 259.921 228.896 259.921C230.307 259.921 231.412 260.601 231.956 261.825L232.466 261.536C231.871 260.091 230.46 259.326 228.913 259.326C227.077 259.326 225.479 260.618 225.479 262.318C225.479 264.477 227.315 264.919 229.032 265.31C230.63 265.667 232.143 266.024 232.143 267.724C232.143 269.305 230.817 270.257 229.083 270.257C227.536 270.257 226.312 269.543 225.785 268.319L225.258 268.591C225.853 270.036 227.366 270.852 229.083 270.852ZM238.997 270.903C241.377 270.903 243.23 268.982 243.23 266.636C243.23 264.307 241.411 262.386 238.997 262.386C236.634 262.386 234.73 264.29 234.73 266.636C234.73 268.982 236.6 270.903 238.997 270.903ZM238.997 270.325C236.957 270.325 235.342 268.659 235.342 266.636C235.342 264.63 236.957 262.964 238.997 262.964C241.003 262.964 242.635 264.63 242.635 266.636C242.635 268.659 241.003 270.325 238.997 270.325ZM254.684 270.92C257.098 270.92 258.917 268.999 258.917 266.67C258.917 264.307 257.081 262.386 254.701 262.386C253.052 262.386 251.675 263.338 251.012 264.698V258.799H250.417V266.67C250.417 269.033 252.321 270.92 254.684 270.92ZM254.684 270.342C252.644 270.342 251.029 268.676 251.029 266.67C251.029 264.647 252.644 262.964 254.684 262.964C256.707 262.964 258.322 264.647 258.322 266.67C258.322 268.676 256.707 270.342 254.684 270.342ZM264.71 270.903C266.121 270.903 267.379 270.291 268.144 268.982L267.668 268.693C267.005 269.849 265.9 270.325 264.71 270.325C262.704 270.325 261.242 268.778 261.174 266.823H268.399V266.381C268.399 264.035 266.835 262.386 264.523 262.386C262.177 262.386 260.562 264.29 260.562 266.653C260.562 269.033 262.347 270.903 264.71 270.903ZM261.191 266.313C261.327 264.443 262.602 262.964 264.523 262.964C266.427 262.964 267.804 264.307 267.804 266.313H261.191ZM271.127 258.799V270.75H271.722V258.799H271.127ZM275.65 260.312C275.956 260.312 276.16 260.091 276.16 259.785C276.16 259.462 275.956 259.241 275.65 259.241C275.361 259.241 275.14 259.462 275.14 259.785C275.14 260.091 275.361 260.312 275.65 260.312ZM275.344 262.556V270.75H275.939V262.556H275.344ZM282.723 270.903C284.134 270.903 285.392 270.291 286.157 268.982L285.681 268.693C285.018 269.849 283.913 270.325 282.723 270.325C280.717 270.325 279.255 268.778 279.187 266.823H286.412V266.381C286.412 264.035 284.848 262.386 282.536 262.386C280.19 262.386 278.575 264.29 278.575 266.653C278.575 269.033 280.36 270.903 282.723 270.903ZM279.204 266.313C279.34 264.443 280.615 262.964 282.536 262.964C284.44 262.964 285.817 264.307 285.817 266.313H279.204ZM290.483 270.121C290.687 270.648 291.112 270.92 291.571 270.92C292.047 270.92 292.455 270.648 292.659 270.121L295.515 262.556H294.886L292.098 269.934C291.996 270.206 291.809 270.342 291.571 270.342C291.35 270.342 291.146 270.206 291.044 269.934L288.256 262.556H287.627L290.483 270.121ZM300.702 270.903C302.113 270.903 303.371 270.291 304.136 268.982L303.66 268.693C302.997 269.849 301.892 270.325 300.702 270.325C298.696 270.325 297.234 268.778 297.166 266.823H304.391V266.381C304.391 264.035 302.827 262.386 300.515 262.386C298.169 262.386 296.554 264.29 296.554 266.653C296.554 269.033 298.339 270.903 300.702 270.903ZM297.183 266.313C297.319 264.443 298.594 262.964 300.515 262.964C302.419 262.964 303.796 264.307 303.796 266.313H297.183ZM312.339 260.312C312.645 260.312 312.849 260.091 312.849 259.785C312.849 259.462 312.645 259.241 312.339 259.241C312.05 259.241 311.829 259.462 311.829 259.785C311.829 260.091 312.05 260.312 312.339 260.312ZM312.033 262.556V270.75H312.628V262.556H312.033ZM318.919 270.92C319.531 270.92 320.109 270.699 320.534 270.359V269.73C320.126 270.104 319.582 270.342 318.953 270.342C317.797 270.342 317.049 269.56 317.049 268.234V263.117H320.534V262.556H317.049V260.363H316.454V262.556H314.618V263.117H316.454V268.251C316.454 269.883 317.406 270.92 318.919 270.92ZM99.4239 297.92C99.9679 297.92 100.427 297.563 100.597 296.849L102.127 290.593C102.229 290.168 102.501 289.93 102.79 289.93C103.096 289.93 103.385 290.168 103.487 290.593L105 296.849C105.17 297.563 105.612 297.92 106.173 297.92C106.734 297.92 107.21 297.546 107.38 296.798L109.029 289.556H108.451L106.836 296.679C106.734 297.121 106.479 297.359 106.173 297.359C105.884 297.359 105.646 297.138 105.544 296.73L104.031 290.491C103.844 289.743 103.368 289.386 102.807 289.386C102.246 289.386 101.77 289.743 101.583 290.491L100.053 296.73C99.9509 297.138 99.6959 297.359 99.4239 297.359C99.1179 297.359 98.8629 297.121 98.7609 296.679L97.1289 289.556H96.5509L98.1999 296.798C98.3699 297.529 98.8459 297.92 99.4239 297.92ZM112.048 297.75V293.585C112.048 291.511 113.476 289.964 115.363 289.964C117.454 289.964 118.508 291.596 118.508 293.483V297.75H119.103V293.449C119.103 291.052 117.692 289.386 115.414 289.386C113.867 289.386 112.575 290.27 112.048 291.562V285.799H111.453V297.75H112.048ZM125.523 297.903C126.934 297.903 128.192 297.291 128.957 295.982L128.481 295.693C127.818 296.849 126.713 297.325 125.523 297.325C123.517 297.325 122.055 295.778 121.987 293.823H129.212V293.381C129.212 291.035 127.648 289.386 125.336 289.386C122.99 289.386 121.375 291.29 121.375 293.653C121.375 296.033 123.16 297.903 125.523 297.903ZM122.004 293.313C122.14 291.443 123.415 289.964 125.336 289.964C127.24 289.964 128.617 291.307 128.617 293.313H122.004ZM135.391 289.964C137.482 289.964 138.672 291.63 138.672 293.551V297.75H139.267V293.5C139.267 291.154 137.788 289.386 135.391 289.386C133.045 289.386 131.6 291.171 131.6 293.517V297.75H132.195V293.534C132.195 291.63 133.351 289.964 135.391 289.964ZM149.146 297.92C149.69 297.92 150.149 297.563 150.319 296.849L151.849 290.593C151.951 290.168 152.223 289.93 152.512 289.93C152.818 289.93 153.107 290.168 153.209 290.593L154.722 296.849C154.892 297.563 155.334 297.92 155.895 297.92C156.456 297.92 156.932 297.546 157.102 296.798L158.751 289.556H158.173L156.558 296.679C156.456 297.121 156.201 297.359 155.895 297.359C155.606 297.359 155.368 297.138 155.266 296.73L153.753 290.491C153.566 289.743 153.09 289.386 152.529 289.386C151.968 289.386 151.492 289.743 151.305 290.491L149.775 296.73C149.673 297.138 149.418 297.359 149.146 297.359C148.84 297.359 148.585 297.121 148.483 296.679L146.851 289.556H146.273L147.922 296.798C148.092 297.529 148.568 297.92 149.146 297.92ZM164.254 297.903C165.665 297.903 166.923 297.291 167.688 295.982L167.212 295.693C166.549 296.849 165.444 297.325 164.254 297.325C162.248 297.325 160.786 295.778 160.718 293.823H167.943V293.381C167.943 291.035 166.379 289.386 164.067 289.386C161.721 289.386 160.106 291.29 160.106 293.653C160.106 296.033 161.891 297.903 164.254 297.903ZM160.735 293.313C160.871 291.443 162.146 289.964 164.067 289.964C165.971 289.964 167.348 291.307 167.348 293.313H160.735ZM177.829 297.869C179.359 297.869 180.702 296.985 180.702 295.557C180.702 292.446 175.721 294.129 175.721 291.698C175.721 290.695 176.724 290.049 177.778 290.049C178.696 290.049 179.512 290.355 180.005 291.256L180.515 290.967C179.954 289.964 178.951 289.471 177.761 289.471C176.35 289.471 175.109 290.372 175.109 291.698C175.109 294.775 180.09 293.058 180.09 295.557C180.09 296.662 179.036 297.291 177.812 297.291C176.758 297.291 175.874 296.866 175.347 295.829L174.837 296.118C175.432 297.291 176.554 297.869 177.829 297.869ZM186.767 297.903C188.467 297.903 189.861 296.917 190.49 295.489V297.75H191.068V293.636C191.068 291.256 189.181 289.386 186.818 289.386C184.387 289.386 182.568 291.307 182.568 293.636C182.568 295.982 184.404 297.903 186.767 297.903ZM186.818 297.325C184.795 297.325 183.18 295.659 183.18 293.636C183.18 291.63 184.795 289.964 186.818 289.964C188.841 289.964 190.473 291.63 190.473 293.636C190.473 295.659 188.841 297.325 186.818 297.325ZM197.439 301.677C200.057 301.677 201.315 299.773 201.315 297.206V289.556H200.703V293.636C200.703 295.659 199.564 297.325 197.541 297.325C195.569 297.325 194.532 295.914 194.532 293.857V289.556H193.92V293.976C193.92 296.305 195.212 297.903 197.507 297.903C199.105 297.903 200.193 297.019 200.703 295.71L200.72 297.206C200.737 299.348 199.666 301.099 197.439 301.099C196.232 301.099 195.008 300.606 194.362 299.467L193.835 299.756C194.583 301.082 196.028 301.677 197.439 301.677ZM212.762 301.677C215.38 301.677 216.638 299.773 216.638 297.206V289.556H216.026V293.636C216.026 295.659 214.887 297.325 212.864 297.325C210.892 297.325 209.855 295.914 209.855 293.857V289.556H209.243V293.976C209.243 296.305 210.535 297.903 212.83 297.903C214.428 297.903 215.516 297.019 216.026 295.71L216.043 297.206C216.06 299.348 214.989 301.099 212.762 301.099C211.555 301.099 210.331 300.606 209.685 299.467L209.158 299.756C209.906 301.082 211.351 301.677 212.762 301.677ZM223.358 297.903C225.738 297.903 227.591 295.982 227.591 293.636C227.591 291.307 225.772 289.386 223.358 289.386C220.995 289.386 219.091 291.29 219.091 293.636C219.091 295.982 220.961 297.903 223.358 297.903ZM223.358 297.325C221.318 297.325 219.703 295.659 219.703 293.636C219.703 291.63 221.318 289.964 223.358 289.964C225.364 289.964 226.996 291.63 226.996 293.636C226.996 295.659 225.364 297.325 223.358 297.325ZM233.468 297.325C231.496 297.325 230.357 295.659 230.357 293.755V289.556H229.762V293.772C229.762 296.118 231.207 297.903 233.468 297.903C235.763 297.903 237.242 296.135 237.242 293.789V289.556H236.647V293.738C236.647 295.659 235.457 297.325 233.468 297.325ZM248.525 297.903C250.225 297.903 251.619 296.917 252.248 295.489V297.75H252.826V293.636C252.826 291.256 250.939 289.386 248.576 289.386C246.145 289.386 244.326 291.307 244.326 293.636C244.326 295.982 246.162 297.903 248.525 297.903ZM248.576 297.325C246.553 297.325 244.938 295.659 244.938 293.636C244.938 291.63 246.553 289.964 248.576 289.964C250.599 289.964 252.231 291.63 252.231 293.636C252.231 295.659 250.599 297.325 248.576 297.325ZM256.358 297.75V292.616C256.358 291.069 257.225 290.049 258.585 290.049C259.061 290.049 259.52 290.168 259.928 290.423V289.794C259.503 289.573 259.044 289.471 258.551 289.471C256.851 289.471 255.763 290.729 255.763 292.582V297.75H256.358ZM264.76 297.903C266.171 297.903 267.429 297.291 268.194 295.982L267.718 295.693C267.055 296.849 265.95 297.325 264.76 297.325C262.754 297.325 261.292 295.778 261.224 293.823H268.449V293.381C268.449 291.035 266.885 289.386 264.573 289.386C262.227 289.386 260.612 291.29 260.612 293.653C260.612 296.033 262.397 297.903 264.76 297.903ZM261.241 293.313C261.377 291.443 262.652 289.964 264.573 289.964C266.477 289.964 267.854 291.307 267.854 293.313H261.241ZM276.397 287.312C276.703 287.312 276.907 287.091 276.907 286.785C276.907 286.462 276.703 286.241 276.397 286.241C276.108 286.241 275.887 286.462 275.887 286.785C275.887 287.091 276.108 287.312 276.397 287.312ZM276.091 289.556V297.75H276.686V289.556H276.091ZM283.759 289.964C285.85 289.964 287.04 291.63 287.04 293.551V297.75H287.635V293.5C287.635 291.154 286.156 289.386 283.759 289.386C281.413 289.386 279.968 291.171 279.968 293.517V297.75H280.563V293.534C280.563 291.63 281.719 289.964 283.759 289.964ZM299.231 301.677C301.764 301.677 303.549 299.875 303.549 297.121V293.636C303.549 291.256 301.662 289.386 299.299 289.386C296.868 289.386 295.049 291.307 295.049 293.636C295.049 295.982 296.902 297.903 299.248 297.903C300.948 297.903 302.325 296.917 302.937 295.54L302.954 297.053C302.971 299.467 301.424 301.099 299.214 301.099C297.871 301.099 296.63 300.538 295.967 299.382L295.457 299.688C296.205 300.997 297.667 301.677 299.231 301.677ZM299.299 297.325C297.276 297.325 295.661 295.659 295.661 293.636C295.661 291.613 297.276 289.964 299.299 289.964C301.322 289.964 302.937 291.613 302.937 293.636C302.937 295.659 301.322 297.325 299.299 297.325ZM310.118 297.903C312.498 297.903 314.351 295.982 314.351 293.636C314.351 291.307 312.532 289.386 310.118 289.386C307.755 289.386 305.851 291.29 305.851 293.636C305.851 295.982 307.721 297.903 310.118 297.903ZM310.118 297.325C308.078 297.325 306.463 295.659 306.463 293.636C306.463 291.63 308.078 289.964 310.118 289.964C312.124 289.964 313.756 291.63 313.756 293.636C313.756 295.659 312.124 297.325 310.118 297.325ZM320.245 297.903C322.625 297.903 324.478 295.982 324.478 293.636C324.478 291.307 322.659 289.386 320.245 289.386C317.882 289.386 315.978 291.29 315.978 293.636C315.978 295.982 317.848 297.903 320.245 297.903ZM320.245 297.325C318.205 297.325 316.59 295.659 316.59 293.636C316.59 291.63 318.205 289.964 320.245 289.964C322.251 289.964 323.883 291.63 323.883 293.636C323.883 295.659 322.251 297.325 320.245 297.325ZM330.355 297.92C332.718 297.92 334.605 296.033 334.605 293.67V285.799H334.01L333.993 291.647C333.33 290.321 331.953 289.386 330.338 289.386C327.958 289.386 326.105 291.307 326.105 293.67C326.105 295.999 327.924 297.92 330.355 297.92ZM330.355 297.342C328.332 297.342 326.717 295.676 326.717 293.67C326.717 291.647 328.332 289.964 330.355 289.964C332.378 289.964 334.01 291.647 334.01 293.67C334.01 295.676 332.378 297.342 330.355 297.342ZM189.777 324.75V320.585C189.777 318.511 191.205 316.964 193.092 316.964C195.183 316.964 196.237 318.596 196.237 320.483V324.75H196.832V320.449C196.832 318.052 195.421 316.386 193.143 316.386C191.596 316.386 190.304 317.27 189.777 318.562V312.799H189.182V324.75H189.777ZM203.302 324.903C205.002 324.903 206.396 323.917 207.025 322.489V324.75H207.603V320.636C207.603 318.256 205.716 316.386 203.353 316.386C200.922 316.386 199.103 318.307 199.103 320.636C199.103 322.982 200.939 324.903 203.302 324.903ZM203.353 324.325C201.33 324.325 199.715 322.659 199.715 320.636C199.715 318.63 201.33 316.964 203.353 316.964C205.376 316.964 207.008 318.63 207.008 320.636C207.008 322.659 205.376 324.325 203.353 324.325ZM214.331 316.964C216.422 316.964 217.612 318.63 217.612 320.551V324.75H218.207V320.5C218.207 318.154 216.728 316.386 214.331 316.386C211.985 316.386 210.54 318.171 210.54 320.517V324.75H211.135V320.534C211.135 318.63 212.291 316.964 214.331 316.964ZM224.736 324.92C227.099 324.92 228.986 323.033 228.986 320.67V312.799H228.391L228.374 318.647C227.711 317.321 226.334 316.386 224.719 316.386C222.339 316.386 220.486 318.307 220.486 320.67C220.486 322.999 222.305 324.92 224.736 324.92ZM224.736 324.342C222.713 324.342 221.098 322.676 221.098 320.67C221.098 318.647 222.713 316.964 224.736 316.964C226.759 316.964 228.391 318.647 228.391 320.67C228.391 322.676 226.759 324.342 224.736 324.342ZM234.507 324.869C236.037 324.869 237.38 323.985 237.38 322.557C237.38 319.446 232.399 321.129 232.399 318.698C232.399 317.695 233.402 317.049 234.456 317.049C235.374 317.049 236.19 317.355 236.683 318.256L237.193 317.967C236.632 316.964 235.629 316.471 234.439 316.471C233.028 316.471 231.787 317.372 231.787 318.698C231.787 321.775 236.768 320.058 236.768 322.557C236.768 323.662 235.714 324.291 234.49 324.291C233.436 324.291 232.552 323.866 232.025 322.829L231.515 323.118C232.11 324.291 233.232 324.869 234.507 324.869ZM240.045 317.134L240.946 313.921C240.98 313.853 240.997 313.785 240.997 313.7C240.997 313.394 240.793 313.173 240.487 313.173C240.198 313.173 239.96 313.394 239.96 313.7C239.96 313.904 240.079 314.074 240.232 314.159L239.637 317.134H240.045ZM242.17 317.134L243.088 313.887H243.071C243.088 313.836 243.105 313.768 243.105 313.7C243.105 313.394 242.901 313.173 242.612 313.173C242.306 313.173 242.068 313.394 242.068 313.7C242.068 313.904 242.17 314.074 242.34 314.142L241.745 317.134H242.17Z" fill="white"/>
<rect x="25.5" y="24.5" width="381" height="381" rx="190.5" stroke="url(#paint0_linear_67_856)" stroke-opacity="0.5" shape-rendering="crispEdges"/>
</g>
<defs>
<filter id="filter0_bd_67_856" x="0" y="0" width="432" height="432" filterUnits="userSpaceOnUse" color-interpolation-filters="sRGB">
<feFlood flood-opacity="0" result="BackgroundImageFix"/>
<feGaussianBlur in="BackgroundImageFix" stdDeviation="10.911"/>
<feComposite in2="SourceAlpha" operator="in" result="effect1_backgroundBlur_67_856"/>
<feColorMatrix in="SourceAlpha" type="matrix" values="0 0 0 0 0 0 0 0 0 0 0 0 0 0 0 0 0 0 127 0" result="hardAlpha"/>
<feOffset dy="1"/>
<feGaussianBlur stdDeviation="12.5"/>
<feComposite in2="hardAlpha" operator="out"/>
<feColorMatrix type="matrix" values="0 0 0 0 0 0 0 0 0 0 0 0 0 0 0 0 0 0 0.3 0"/>
<feBlend mode="normal" in2="effect1_backgroundBlur_67_856" result="effect2_dropShadow_67_856"/>
<feBlend mode="normal" in="SourceGraphic" in2="effect2_dropShadow_67_856" result="shape"/>
</filter>
<linearGradient id="paint0_linear_67_856" x1="216" y1="25" x2="216" y2="405" gradientUnits="userSpaceOnUse">
<stop stop-color="#E6E6E6"/>
<stop offset="0.182292" stop-color="#E6E6E6" stop-opacity="0.7"/>
<stop offset="0.609375" stop-color="#E6E6E6" stop-opacity="0.5"/>
<stop offset="1" stop-color="#E6E6E6" stop-opacity="0.2"/>
</linearGradient>
</defs>
</svg>
