<svg width="260" height="262" viewBox="0 0 260 262" fill="none" xmlns="http://www.w3.org/2000/svg">
<g filter="url(#filter0_bd_67_870)">
<rect x="26" y="25" width="208" height="210" rx="104" fill="#CFCFCF" fill-opacity="0.05" shape-rendering="crispEdges"/>
<path d="M54.4407 123.5H53.0127L56.7087 113.378H58.2347L61.9447 123.5H60.5027L59.5927 120.98H55.3367L54.4407 123.5ZM57.2967 115.562L55.7567 119.79H59.1867L57.6327 115.562C57.5627 115.366 57.4927 115.128 57.4647 114.974C57.4367 115.114 57.3667 115.352 57.2967 115.562ZM66.9716 123.5H65.5996V113.378H66.9716L72.1516 121.204V113.378H73.5236V123.5H72.1516L66.9716 115.674V123.5ZM79.5622 113.378V123.5H78.1902V113.378H79.5622ZM86.626 119.384L83.196 113.378H84.736L86.99 117.424C87.13 117.662 87.214 117.858 87.326 118.096C87.452 117.844 87.48 117.76 87.662 117.424L89.902 113.378H91.4L87.998 119.384V123.5H86.626V119.384ZM94.4399 123.5H93.0119L96.7079 113.378H98.2339L101.944 123.5H100.502L99.5919 120.98H95.3359L94.4399 123.5ZM97.2959 115.562L95.7559 119.79H99.1859L97.6319 115.562C97.5619 115.366 97.4919 115.128 97.4639 114.974C97.4359 115.114 97.3659 115.352 97.2959 115.562ZM112.156 123.5H110.728L114.424 113.378H115.95L119.66 123.5H118.218L117.308 120.98H113.052L112.156 123.5ZM115.012 115.562L113.472 119.79H116.902L115.348 115.562C115.278 115.366 115.208 115.128 115.18 114.974C115.152 115.114 115.082 115.352 115.012 115.562ZM124.697 119.384L121.267 113.378H122.807L125.061 117.424C125.201 117.662 125.285 117.858 125.397 118.096C125.523 117.844 125.551 117.76 125.733 117.424L127.973 113.378H129.471L126.069 119.384V123.5H124.697V119.384ZM133.033 119.902V113.378H134.405V119.818C134.405 121.442 135.301 122.338 136.911 122.338C138.507 122.338 139.389 121.428 139.389 119.818V113.378H140.775V119.902C140.775 122.226 139.291 123.668 136.911 123.668C134.517 123.668 133.033 122.24 133.033 119.902ZM145.366 123.5V113.378H149.23C151.204 113.378 152.408 114.386 152.408 116.052C152.408 117.214 151.904 117.998 150.896 118.418C152.016 118.782 152.59 119.594 152.59 120.798C152.59 122.478 151.372 123.5 149.37 123.5H145.366ZM149.146 114.596H146.738V117.844H149.23C150.364 117.844 151.008 117.228 151.008 116.178C151.008 115.17 150.336 114.596 149.146 114.596ZM149.342 119.034H146.738V122.282H149.342C150.518 122.282 151.176 121.68 151.176 120.63C151.176 119.622 150.504 119.034 149.342 119.034ZM164.126 113.378V119.118L168.634 113.378H170.272L166.884 117.676L170.328 123.5H168.732L165.974 118.838L164.126 121.176V123.5H162.754V113.378H164.126ZM175.431 123.5H174.059V113.378H175.431V117.732H180.443V113.378H181.815V123.5H180.443V119.006H175.431V123.5ZM186.892 123.5H185.464L189.16 113.378H190.686L194.396 123.5H192.954L192.044 120.98H187.788L186.892 123.5ZM189.748 115.562L188.208 119.79H191.638L190.084 115.562C190.014 115.366 189.944 115.128 189.916 114.974C189.888 115.114 189.818 115.352 189.748 115.562ZM199.423 123.5H198.051V113.378H199.423L204.603 121.204V113.378H205.975V123.5H204.603L199.423 115.674V123.5ZM75.2464 146.5L73.5414 138.547H74.5974L75.6974 143.684C75.7964 144.179 75.8734 144.597 75.9504 145.169C76.2144 144.575 76.4344 144.157 76.6764 143.684L79.3934 138.547H80.5154L76.3244 146.5H75.2464ZM84.8962 138.547L83.6422 146.5H82.6082L83.8622 138.547H84.8962ZM91.2612 146.621C89.2152 146.621 87.9392 145.191 87.9392 143.112C87.9392 140.384 89.7432 138.415 92.1852 138.415C93.9672 138.415 95.1992 139.526 95.2872 141.11H94.1982C94.0552 140.043 93.2082 139.416 92.0972 139.416C90.2712 139.416 89.0282 140.967 89.0282 143.068C89.0282 144.608 89.8972 145.609 91.2942 145.609C92.4822 145.609 93.2962 145.114 93.7912 143.981H94.9352C94.2972 145.73 93.0322 146.621 91.2612 146.621ZM102.925 146.5H98.184L99.438 138.547H104.179L104.025 139.515H100.329L99.922 142.034H103.255L103.112 142.969H99.768L99.361 145.532H103.079L102.925 146.5ZM115.461 143.662H113.547L113.096 146.5H112.062L113.316 138.547H116.121C117.507 138.547 118.453 139.449 118.453 140.791C118.453 142.507 117.254 143.662 115.461 143.662ZM115.879 139.482H114.207L113.69 142.727H115.406C116.638 142.727 117.386 142.034 117.386 140.868C117.386 140.021 116.803 139.482 115.879 139.482ZM122.173 146.5H121.139L122.393 138.547H125.297C126.705 138.547 127.607 139.383 127.607 140.681C127.607 141.836 126.881 142.76 125.682 143.145L126.771 146.5H125.704L124.681 143.343H122.668L122.173 146.5ZM123.284 139.482L122.811 142.408H124.714C125.836 142.408 126.54 141.77 126.54 140.747C126.54 139.955 126.023 139.482 125.143 139.482H123.284ZM135.226 146.5H130.485L131.739 138.547H136.48L136.326 139.515H132.63L132.223 142.034H135.556L135.413 142.969H132.069L131.662 145.532H135.38L135.226 146.5ZM139.496 140.78C139.496 139.361 140.574 138.404 142.158 138.404C143.643 138.404 144.688 139.306 144.776 140.626H143.731C143.643 139.823 143.049 139.35 142.114 139.35C141.146 139.35 140.53 139.856 140.53 140.67C140.53 141.275 140.849 141.649 141.575 141.891L142.752 142.287C143.841 142.65 144.347 143.277 144.347 144.256C144.347 145.675 143.225 146.643 141.564 146.643C139.947 146.643 138.979 145.851 138.858 144.421H139.914C139.991 145.235 140.596 145.697 141.597 145.697C142.642 145.697 143.324 145.158 143.324 144.333C143.324 143.75 143.06 143.431 142.378 143.2L141.212 142.815C140.068 142.452 139.496 141.77 139.496 140.78ZM149.949 138.547L148.695 146.5H147.661L148.915 138.547H149.949ZM155.412 146.5H152.86L154.114 138.547H156.512C158.613 138.547 159.966 140.021 159.966 142.034C159.966 144.784 158.041 146.5 155.412 146.5ZM156.347 139.504H154.994L154.048 145.532H155.5C157.469 145.532 158.877 144.245 158.877 142.034C158.877 140.527 157.942 139.504 156.347 139.504ZM167.763 146.5H163.022L164.276 138.547H169.017L168.863 139.515H165.167L164.76 142.034H168.093L167.95 142.969H164.606L164.199 145.532H167.917L167.763 146.5ZM172.682 146.5H171.648L172.902 138.547H173.936L176.961 144.762L177.94 138.547H178.974L177.709 146.5H176.686L173.661 140.285L172.682 146.5ZM182.215 139.504L182.358 138.547H188.056L187.913 139.504H185.581L184.47 146.5H183.436L184.547 139.504H182.215Z" fill="white"/>
<rect x="25.5" y="24.5" width="209" height="211" rx="104.5" stroke="url(#paint0_linear_67_870)" stroke-opacity="0.5" shape-rendering="crispEdges"/>
</g>
<defs>
<filter id="filter0_bd_67_870" x="0" y="0" width="260" height="262" filterUnits="userSpaceOnUse" color-interpolation-filters="sRGB">
<feFlood flood-opacity="0" result="BackgroundImageFix"/>
<feGaussianBlur in="BackgroundImageFix" stdDeviation="10.911"/>
<feComposite in2="SourceAlpha" operator="in" result="effect1_backgroundBlur_67_870"/>
<feColorMatrix in="SourceAlpha" type="matrix" values="0 0 0 0 0 0 0 0 0 0 0 0 0 0 0 0 0 0 127 0" result="hardAlpha"/>
<feOffset dy="1"/>
<feGaussianBlur stdDeviation="12.5"/>
<feComposite in2="hardAlpha" operator="out"/>
<feColorMatrix type="matrix" values="0 0 0 0 0 0 0 0 0 0 0 0 0 0 0 0 0 0 0.3 0"/>
<feBlend mode="normal" in2="effect1_backgroundBlur_67_870" result="effect2_dropShadow_67_870"/>
<feBlend mode="normal" in="SourceGraphic" in2="effect2_dropShadow_67_870" result="shape"/>
</filter>
<linearGradient id="paint0_linear_67_870" x1="130" y1="25" x2="130" y2="235" gradientUnits="userSpaceOnUse">
<stop stop-color="#E6E6E6"/>
<stop offset="0.182292" stop-color="#E6E6E6" stop-opacity="0.7"/>
<stop offset="0.609375" stop-color="#E6E6E6" stop-opacity="0.5"/>
<stop offset="1" stop-color="#E6E6E6" stop-opacity="0.2"/>
</linearGradient>
</defs>
</svg>
