<svg width="260" height="262" viewBox="0 0 260 262" fill="none" xmlns="http://www.w3.org/2000/svg">
<g filter="url(#filter0_bd_67_865)">
<rect x="26" y="25" width="208" height="210" rx="104" fill="#CFCFCF" fill-opacity="0.05" shape-rendering="crispEdges"/>
<path d="M58.899 113.378V123.5H57.527V113.378H58.899ZM64.9128 123.5H63.5688V113.378H64.9128L68.3988 121.89L71.8848 113.378H73.2568V123.5H71.9128V119.496C71.9128 117.606 71.9268 116.92 71.9968 116.206L69.0428 123.5H67.7548L64.8148 116.234C64.8848 116.724 64.9128 117.76 64.9128 119.174V123.5ZM78.343 123.5H76.915L80.611 113.378H82.137L85.847 123.5H84.405L83.495 120.98H79.239L78.343 123.5ZM81.199 115.562L79.659 119.79H83.089L81.535 115.562C81.465 115.366 81.395 115.128 81.367 114.974C81.339 115.114 81.269 115.352 81.199 115.562ZM90.8739 123.5H89.5019V113.378H90.8739L96.0539 121.204V113.378H97.4259V123.5H96.0539L90.8739 115.674V123.5ZM108.65 123.5H107.222L110.918 113.378H112.444L116.154 123.5H114.712L113.802 120.98H109.546L108.65 123.5ZM111.506 115.562L109.966 119.79H113.396L111.842 115.562C111.772 115.366 111.702 115.128 111.674 114.974C111.646 115.114 111.576 115.352 111.506 115.562ZM121.191 119.384L117.761 113.378H119.301L121.555 117.424C121.695 117.662 121.779 117.858 121.891 118.096C122.017 117.844 122.045 117.76 122.227 117.424L124.467 113.378H125.965L122.563 119.384V123.5H121.191V119.384ZM129.527 119.902V113.378H130.899V119.818C130.899 121.442 131.795 122.338 133.405 122.338C135.001 122.338 135.883 121.428 135.883 119.818V113.378H137.269V119.902C137.269 122.226 135.785 123.668 133.405 123.668C131.011 123.668 129.527 122.24 129.527 119.902ZM141.859 123.5V113.378H145.723C147.697 113.378 148.901 114.386 148.901 116.052C148.901 117.214 148.397 117.998 147.389 118.418C148.509 118.782 149.083 119.594 149.083 120.798C149.083 122.478 147.865 123.5 145.863 123.5H141.859ZM145.639 114.596H143.231V117.844H145.723C146.857 117.844 147.501 117.228 147.501 116.178C147.501 115.17 146.829 114.596 145.639 114.596ZM145.835 119.034H143.231V122.282H145.835C147.011 122.282 147.669 121.68 147.669 120.63C147.669 119.622 146.997 119.034 145.835 119.034ZM160.62 113.378V119.118L165.128 113.378H166.766L163.378 117.676L166.822 123.5H165.226L162.468 118.838L160.62 121.176V123.5H159.248V113.378H160.62ZM171.925 123.5H170.553V113.378H171.925V117.732H176.937V113.378H178.309V123.5H176.937V119.006H171.925V123.5ZM183.386 123.5H181.958L185.654 113.378H187.18L190.89 123.5H189.448L188.538 120.98H184.282L183.386 123.5ZM186.242 115.562L184.702 119.79H188.132L186.578 115.562C186.508 115.366 186.438 115.128 186.41 114.974C186.382 115.114 186.312 115.352 186.242 115.562ZM195.917 123.5H194.545V113.378H195.917L201.097 121.204V113.378H202.469V123.5H201.097L195.917 115.674V123.5ZM76.7059 146.621C74.6599 146.621 73.3839 145.191 73.3839 143.112C73.3839 140.384 75.1879 138.415 77.6299 138.415C79.4119 138.415 80.6439 139.526 80.7319 141.11H79.6429C79.4999 140.043 78.6529 139.416 77.5419 139.416C75.7159 139.416 74.4729 140.967 74.4729 143.068C74.4729 144.608 75.3419 145.609 76.7389 145.609C77.9269 145.609 78.7409 145.114 79.2359 143.981H80.3799C79.7419 145.73 78.4769 146.621 76.7059 146.621ZM88.3696 146.5H83.6286L84.8826 138.547H89.6236L89.4696 139.515H85.7736L85.3666 142.034H88.6996L88.5566 142.969H85.2126L84.8056 145.532H88.5236L88.3696 146.5ZM99.9654 141.88C99.9654 144.542 98.1064 146.632 95.7084 146.632C93.7064 146.632 92.3644 145.235 92.3644 143.178C92.3644 140.516 94.2234 138.415 96.6214 138.415C98.6124 138.415 99.9654 139.823 99.9654 141.88ZM98.8764 141.957C98.8764 140.406 97.9634 139.416 96.5224 139.416C94.8064 139.416 93.4644 141.055 93.4644 143.09C93.4644 144.63 94.3664 145.62 95.8074 145.62C97.5234 145.62 98.8764 143.992 98.8764 141.957ZM113.328 146.5L112.822 145.785C112.14 146.335 111.282 146.643 110.314 146.643C108.818 146.643 107.795 145.807 107.795 144.575C107.795 143.453 108.444 142.716 110.149 141.968C109.632 141.209 109.467 140.791 109.467 140.296C109.467 139.218 110.325 138.415 111.48 138.415C112.492 138.415 113.174 139.02 113.174 139.911C113.174 140.802 112.646 141.473 111.381 142.188L112.91 144.366C113.174 143.926 113.361 143.398 113.46 142.782H114.439C114.296 143.717 113.955 144.52 113.46 145.136L114.417 146.5H113.328ZM110.974 141.605C111.81 141.198 112.228 140.637 112.228 139.966C112.228 139.515 111.92 139.229 111.414 139.229C110.853 139.229 110.413 139.669 110.413 140.241C110.413 140.692 110.545 140.989 110.974 141.605ZM108.851 144.454C108.851 145.257 109.478 145.774 110.457 145.774C111.194 145.774 111.832 145.532 112.327 145.081L110.567 142.573C109.335 143.134 108.851 143.673 108.851 144.454ZM127.296 143.112H124.238L123.699 146.5H122.665L123.919 138.547H128.605L128.451 139.504H124.799L124.381 142.166H127.45L127.296 143.112ZM138.679 141.88C138.679 144.542 136.82 146.632 134.422 146.632C132.42 146.632 131.078 145.235 131.078 143.178C131.078 140.516 132.937 138.415 135.335 138.415C137.326 138.415 138.679 139.823 138.679 141.88ZM137.59 141.957C137.59 140.406 136.677 139.416 135.236 139.416C133.52 139.416 132.178 141.055 132.178 143.09C132.178 144.63 133.08 145.62 134.521 145.62C136.237 145.62 137.59 143.992 137.59 141.957ZM142.106 143.64L142.92 138.547H143.943L143.14 143.64C142.942 144.872 143.569 145.62 144.812 145.62C146.033 145.62 146.803 144.916 147.012 143.64L147.815 138.547H148.849L148.024 143.695C147.727 145.565 146.572 146.632 144.735 146.632C142.975 146.632 141.831 145.411 142.106 143.64ZM152.745 146.5H151.711L152.965 138.547H153.999L157.024 144.762L158.003 138.547H159.037L157.772 146.5H156.749L153.724 140.285L152.745 146.5ZM164.489 146.5H161.937L163.191 138.547H165.589C167.69 138.547 169.043 140.021 169.043 142.034C169.043 144.784 167.118 146.5 164.489 146.5ZM165.424 139.504H164.071L163.125 145.532H164.577C166.546 145.532 167.954 144.245 167.954 142.034C167.954 140.527 167.019 139.504 165.424 139.504ZM176.84 146.5H172.099L173.353 138.547H178.094L177.94 139.515H174.244L173.837 142.034H177.17L177.027 142.969H173.683L173.276 145.532H176.994L176.84 146.5ZM181.759 146.5H180.725L181.979 138.547H184.883C186.291 138.547 187.193 139.383 187.193 140.681C187.193 141.836 186.467 142.76 185.268 143.145L186.357 146.5H185.29L184.267 143.343H182.254L181.759 146.5ZM182.87 139.482L182.397 142.408H184.3C185.422 142.408 186.126 141.77 186.126 140.747C186.126 139.955 185.609 139.482 184.729 139.482H182.87Z" fill="white"/>
<rect x="25.5" y="24.5" width="209" height="211" rx="104.5" stroke="url(#paint0_linear_67_865)" stroke-opacity="0.5" shape-rendering="crispEdges"/>
</g>
<defs>
<filter id="filter0_bd_67_865" x="0" y="0" width="260" height="262" filterUnits="userSpaceOnUse" color-interpolation-filters="sRGB">
<feFlood flood-opacity="0" result="BackgroundImageFix"/>
<feGaussianBlur in="BackgroundImageFix" stdDeviation="10.911"/>
<feComposite in2="SourceAlpha" operator="in" result="effect1_backgroundBlur_67_865"/>
<feColorMatrix in="SourceAlpha" type="matrix" values="0 0 0 0 0 0 0 0 0 0 0 0 0 0 0 0 0 0 127 0" result="hardAlpha"/>
<feOffset dy="1"/>
<feGaussianBlur stdDeviation="12.5"/>
<feComposite in2="hardAlpha" operator="out"/>
<feColorMatrix type="matrix" values="0 0 0 0 0 0 0 0 0 0 0 0 0 0 0 0 0 0 0.3 0"/>
<feBlend mode="normal" in2="effect1_backgroundBlur_67_865" result="effect2_dropShadow_67_865"/>
<feBlend mode="normal" in="SourceGraphic" in2="effect2_dropShadow_67_865" result="shape"/>
</filter>
<linearGradient id="paint0_linear_67_865" x1="130" y1="25" x2="130" y2="235" gradientUnits="userSpaceOnUse">
<stop stop-color="#E6E6E6"/>
<stop offset="0.182292" stop-color="#E6E6E6" stop-opacity="0.7"/>
<stop offset="0.609375" stop-color="#E6E6E6" stop-opacity="0.5"/>
<stop offset="1" stop-color="#E6E6E6" stop-opacity="0.2"/>
</linearGradient>
</defs>
</svg>
