<svg width="45" height="575" viewBox="0 0 45 575" fill="none" xmlns="http://www.w3.org/2000/svg">
<path d="M44.696 553.894C44.696 543.86 38.78 536.088 29.848 534.464V542.178C34.546 543.57 37.562 547.978 37.562 553.72C37.562 561.492 31.762 566.48 22.772 566.48C13.724 566.48 8.04 561.55 8.04 553.72C8.04 548.094 10.94 543.86 15.87 542.41V534.58C6.764 536.03 0.905998 543.512 0.905998 553.546C0.905998 565.958 9.664 574.252 22.83 574.252C36.112 574.252 44.696 566.248 44.696 553.894ZM22.772 483.12C9.838 483.12 0.847999 491.588 0.847999 503.71C0.847999 515.832 9.896 524.242 22.772 524.242C35.706 524.242 44.696 515.89 44.696 503.768C44.696 491.588 35.648 483.12 22.772 483.12ZM22.772 490.95C31.704 490.95 37.562 495.938 37.562 503.71C37.562 511.482 31.82 516.47 22.772 516.47C13.724 516.47 7.982 511.482 7.982 503.71C7.982 495.938 13.724 490.95 22.772 490.95ZM44 463.018H28.804C23.526 463.018 19.524 463.076 16.972 463.482L44 452.752V445.908L16.914 435.12C19.93 435.526 22.424 435.526 30.95 435.526H44V428.334H1.602L1.602 435.642L35.358 449.33L1.602 463.018V470.21H44V463.018ZM29.384 396.188C29.384 387.72 23.642 382.152 15.464 382.152C7.17 382.152 1.602 387.662 1.602 396.188V412.95H44V405.526H29.384L29.384 396.188ZM8.214 397.638C8.214 392.708 10.766 389.924 15.406 389.924C20.046 389.924 22.772 392.65 22.772 397.754L22.772 405.526H8.214L8.214 397.638ZM44 368.519L34.198 365.097V349.263L44 345.841V338.011L1.602 353.323V360.921L44 376.233V368.519ZM14.246 358.079C13.086 357.673 11.81 357.325 10.998 357.151C11.868 357.035 13.144 356.629 14.246 356.281L27.934 351.409V362.893L14.246 358.079ZM44 319.387H13.956L44 299.435V292.127H1.602V299.435H31.646L1.602 319.329V326.695H44V319.387ZM27.296 266.533H44V259.109H27.296L1.602 244.841V252.903L17.03 261.197C18.422 261.951 19.118 262.183 20.162 262.705C19.118 263.169 18.19 263.575 17.03 264.213L1.602 272.565V280.859L27.296 266.533ZM44 204.528H26.02V185.736H44V178.312H1.602V185.736H19.118V204.528H1.602V211.952H44V204.528ZM44 136.574H37.156V155.482H25.904V138.546H19.35V155.482H8.446V136.574H1.602L1.602 162.906H44V136.574ZM44 118.871L34.198 115.449V99.6147L44 96.1927V88.3627L1.602 103.675V111.273L44 126.585V118.871ZM14.246 108.431C13.086 108.025 11.81 107.677 10.998 107.503C11.868 107.387 13.144 106.981 14.246 106.633L27.934 101.761V113.245L14.246 108.431ZM44 61.7921C44 49.4961 35.358 41.0281 22.888 41.0281C10.244 41.0281 1.602 49.6701 1.602 62.1981V77.0461H44V61.7921ZM8.446 62.8941C8.446 54.1361 13.898 48.8581 22.888 48.8581C31.704 48.8581 37.156 54.0201 37.156 62.4881V69.6221H8.446V62.8941ZM13.434 30.5485C19.93 30.5485 24.048 26.7785 25.614 19.5865L27.122 12.8585C27.876 9.37855 29.558 7.92855 32.4 7.92855C35.938 7.92855 38.084 11.0605 38.084 15.9905C38.084 20.7465 35.938 23.6465 32.342 23.7045V31.1285C39.94 30.9545 44.754 25.0385 44.754 15.9905C44.754 6.65254 39.65 0.504544 31.762 0.504544C25.44 0.504544 21.728 4.04255 20.162 11.2925L18.712 17.9625C17.9 21.5005 16.218 23.1245 13.202 23.1245C9.664 23.1245 7.46 20.1665 7.46 15.5845C7.46 11.4085 9.606 8.79854 13.26 8.62455V1.20055C5.604 1.43255 0.847999 6.88455 0.847999 15.4685C0.847999 24.4005 6.01 30.5485 13.434 30.5485Z" fill="url(#paint0_linear_67_861)"/>
<defs>
<linearGradient id="paint0_linear_67_861" x1="-25" y1="287.5" x2="68" y2="287.5" gradientUnits="userSpaceOnUse">
<stop stop-color="white"/>
<stop offset="1" stop-color="white" stop-opacity="0"/>
</linearGradient>
</defs>
</svg>
