<svg width="43" height="521" viewBox="0 0 43 521" fill="none" xmlns="http://www.w3.org/2000/svg">
<path d="M0 8.1566H15.196C20.474 8.1566 24.476 8.0986 27.028 7.6926L0 18.4226V25.2666L27.086 36.0546C24.07 35.6486 21.576 35.6486 13.05 35.6486L0 35.6486V42.8406L42.398 42.8406V35.5326L8.642 21.8446L42.398 8.1566V0.964602L0 0.964602V8.1566ZM0 84.5564H6.844V65.6484H18.096V82.5844H24.65V65.6484H35.554V84.5564H42.398L42.398 58.2244L0 58.2244V84.5564ZM0 124.937H6.844V106.029H18.096V122.965H24.65V106.029H35.554V124.937H42.398V98.6052H0L0 124.937ZM35.554 135.274V147.686H0V155.11H35.554V167.522H42.398L42.398 135.274H35.554ZM35.554 197.118V209.53H0V216.954H35.554V229.366H42.398V197.118H35.554ZM0 248.465H17.98V267.257H0V274.681H42.398V267.257H24.882V248.465H42.398V241.041H0V248.465ZM0 316.42H6.844V297.512H18.096V314.448H24.65V297.512H35.554V316.42H42.398L42.398 290.088H0V316.42ZM35.554 348.389V360.801H0V368.225H35.554V380.637H42.398L42.398 348.389H35.554ZM0 418.644H6.844L6.844 399.736H18.096L18.096 416.672H24.65L24.65 399.736H35.554L35.554 418.644H42.398V392.312H0V418.644ZM0 436.347L9.802 439.769V455.603L0 459.025V466.855L42.398 451.543V443.945L0 428.633V436.347ZM29.754 446.787C30.914 447.193 32.19 447.541 33.002 447.715C32.132 447.831 30.856 448.237 29.754 448.585L16.066 453.457V441.973L29.754 446.787ZM0 485.364H15.196C20.474 485.364 24.476 485.306 27.028 484.9L0 495.63V502.474L27.086 513.262C24.07 512.856 21.576 512.856 13.05 512.856H0V520.048H42.398V512.74L8.642 499.052L42.398 485.364V478.172H0V485.364Z" fill="url(#paint0_linear_67_855)"/>
<defs>
<linearGradient id="paint0_linear_67_855" x1="69" y1="260.5" x2="-24" y2="260.5" gradientUnits="userSpaceOnUse">
<stop stop-color="white"/>
<stop offset="1" stop-color="white" stop-opacity="0"/>
</linearGradient>
</defs>
</svg>
