<svg width="24" height="51" viewBox="0 0 24 51" fill="none" xmlns="http://www.w3.org/2000/svg">
<path d="M16.1659 50.565C16.3544 50.565 16.4486 50.4697 16.4486 50.2792V49.4218C16.4486 49.2313 16.3544 49.1361 16.1659 49.1361H15.2473C12.8213 49.1361 13.136 49.1118 11.6238 48.1887C10.9879 47.6886 10.6699 46.3973 10.6699 45.778V45.4565L15.9695 29.7739C15.9695 29.7501 16.0048 29.6548 16.0755 29.4881C16.4759 28.7022 17.0294 28.3092 17.7361 28.3092H23.7776V24.344H18.6546C18.3013 24.344 18.1247 24.2129 18.1247 23.9509C18.1247 23.6652 18.1718 23.4032 18.266 23.165L23.2123 8.55411C23.4714 7.88731 23.6598 7.55384 23.7776 7.55384V0.194824H21.9616L21.457 1.55663L6.99548 43.9204C5.8649 47.2546 3.68617 48.9932 0.459297 49.1361C0.153099 49.1361 0 49.2313 0 49.4218V50.2792C0 50.4697 0.094215 50.565 0.282644 50.565H16.1659Z" fill="url(#paint0_linear_67_33)"/>
<defs>
<linearGradient id="paint0_linear_67_33" x1="11.8888" y1="0.194824" x2="11.8888" y2="50.565" gradientUnits="userSpaceOnUse">
<stop stop-color="#00043C"/>
<stop offset="1" stop-color="white"/>
</linearGradient>
</defs>
</svg>
