<svg width="25" height="51" viewBox="0 0 25 51" fill="none" xmlns="http://www.w3.org/2000/svg">
<path d="M8.38928 50.565C8.20078 50.565 8.10658 50.4697 8.10658 50.2792V49.4218C8.10658 49.2313 8.20078 49.1361 8.38928 49.1361H9.30785C11.7339 49.1361 11.4192 49.1118 12.9314 48.1887C13.5673 47.6886 13.8853 46.3973 13.8853 45.778V45.4565L8.58565 29.7739C8.58565 29.7501 8.55034 29.6548 8.47972 29.4881C8.0793 28.7022 7.52576 28.3092 6.81912 28.3092H0.777576V24.344H5.90055C6.25387 24.344 6.43049 24.2129 6.43049 23.9509C6.43049 23.6652 6.38339 23.4032 6.28918 23.165L1.3429 8.55411C1.08379 7.88731 0.895374 7.55384 0.777576 7.55384V0.194824H2.5936L3.09815 1.55663L17.5597 43.9204C18.6903 47.2546 20.869 48.9932 24.0959 49.1361C24.4021 49.1361 24.5552 49.2313 24.5552 49.4218V50.2792C24.5552 50.4697 24.461 50.565 24.2725 50.565H8.38928Z" fill="url(#paint0_linear_67_34)"/>
<defs>
<linearGradient id="paint0_linear_67_34" x1="12.6664" y1="0.194824" x2="12.6664" y2="50.565" gradientUnits="userSpaceOnUse">
<stop stop-color="#00043C"/>
<stop offset="1" stop-color="white"/>
</linearGradient>
</defs>
</svg>
