<svg width="23" height="59" viewBox="0 0 23 59" fill="none" xmlns="http://www.w3.org/2000/svg">
<path d="M0.894043 56.9432C3.8871 56.686 5.82659 56.1573 6.71253 55.3571C7.59846 54.5282 8.04146 52.4134 8.04146 49.0126V9.95963C8.04146 6.73021 7.59846 4.65825 6.71253 3.74373C5.82659 2.80062 3.8871 2.24334 0.894043 2.07186V0.442871H22.6595V2.07186C19.6664 2.24334 17.727 2.80062 16.8411 3.74373C15.9551 4.65825 15.5121 6.73021 15.5121 9.95963V49.0126C15.5121 52.4134 15.9551 54.5282 16.8411 55.3571C17.727 56.1573 19.6664 56.686 22.6595 56.9432V58.5293H0.894043V56.9432Z" fill="white"/>
</svg>
