<svg width="65" height="80" viewBox="0 0 65 80" fill="none" xmlns="http://www.w3.org/2000/svg">
<g clip-path="url(#clip0_212_144)">
<path d="M17.6238 77.832C21.7148 77.4805 24.3658 76.7578 25.5767 75.6641C26.7876 74.5312 27.3931 71.6406 27.3931 66.9922V13.6133C27.3931 9.19922 26.7876 6.36719 25.5767 5.11719C24.3658 3.82812 21.7148 3.06641 17.6238 2.83203V0.605469H47.3735V2.83203C43.2825 3.06641 40.6316 3.82812 39.4207 5.11719C38.2097 6.36719 37.6043 9.19922 37.6043 13.6133V66.9922C37.6043 71.6406 38.2097 74.5312 39.4207 75.6641C40.6316 76.7578 43.2825 77.4805 47.3735 77.832V80H17.6238V77.832Z" fill="#00043C"/>
</g>
<path d="M22.0961 71.8477C22.3537 71.8477 22.4825 71.7175 22.4825 71.4571V70.2852C22.4825 70.0248 22.3537 69.8946 22.0961 69.8946H20.8406C17.5245 69.8946 17.9547 69.8613 15.8878 68.5997C15.0186 67.9161 14.5839 66.1511 14.5839 65.3047V64.8653L21.8277 43.4297C21.8277 43.3972 21.876 43.267 21.9725 43.0391C22.5198 41.9649 23.2764 41.4278 24.2422 41.4278H32.5V36.0079H25.4978C25.0149 36.0079 24.7734 35.8288 24.7734 35.4707C24.7734 35.0801 24.8378 34.722 24.9666 34.3965L31.7273 14.4258C32.0815 13.5144 32.339 13.0586 32.5 13.0586V3H30.0178L29.3282 4.86136L9.56166 62.7657C8.01635 67.323 5.03839 69.6993 0.627783 69.8946C0.209262 69.8946 0 70.0248 0 70.2852V71.4571C0 71.7175 0.128776 71.8477 0.386327 71.8477H22.0961Z" fill="url(#paint0_linear_212_144)"/>
<path d="M42.9039 71.8477C42.6463 71.8477 42.5175 71.7175 42.5175 71.4571V70.2852C42.5175 70.0248 42.6463 69.8946 42.9039 69.8946H44.1594C47.4755 69.8946 47.0453 69.8613 49.1122 68.5997C49.9814 67.9161 50.4161 66.1511 50.4161 65.3047V64.8653L43.1723 43.4297C43.1723 43.3972 43.124 43.267 43.0275 43.0391C42.4802 41.9649 41.7236 41.4278 40.7578 41.4278H32.5V36.0079H39.5022C39.9851 36.0079 40.2266 35.8288 40.2266 35.4707C40.2266 35.0801 40.1622 34.722 40.0334 34.3965L33.2727 14.4258C32.9185 13.5144 32.661 13.0586 32.5 13.0586V3H34.9822L35.6718 4.86136L55.4383 62.7657C56.9837 67.323 59.9616 69.6993 64.3722 69.8946C64.7907 69.8946 65 70.0248 65 70.2852V71.4571C65 71.7175 64.8712 71.8477 64.6137 71.8477H42.9039Z" fill="url(#paint1_linear_212_144)"/>
<defs>
<linearGradient id="paint0_linear_212_144" x1="16.25" y1="3" x2="16.25" y2="71.8477" gradientUnits="userSpaceOnUse">
<stop stop-color="white"/>
<stop offset="0.114583" stop-color="white"/>
<stop offset="1" stop-color="#00043C"/>
<stop offset="1" stop-color="#00043C"/>
</linearGradient>
<linearGradient id="paint1_linear_212_144" x1="48.75" y1="3" x2="48.75" y2="71.8477" gradientUnits="userSpaceOnUse">
<stop stop-color="white"/>
<stop offset="0.114583" stop-color="white"/>
<stop offset="1" stop-color="#00043C"/>
<stop offset="1" stop-color="#00043C"/>
</linearGradient>
<clipPath id="clip0_212_144">
<rect width="31" height="80" fill="white" transform="translate(16.8252)"/>
</clipPath>
</defs>
</svg>
