<svg
  width="14"
  height="12"
  viewBox="0 0 14 12"
  fill="none"
  xmlns="http://www.w3.org/2000/svg"
>
  <path
    d="M12.4322 1.02509C11.7796 0.374058 10.8957 0.00794739 9.9738 0.00682208C9.05194 0.00569676 8.16715 0.369648 7.51289 1.01909L6.72743 1.7487L5.94136 1.01669C5.28727 0.36442 4.40085 -0.00129167 3.47711 3.42807e-06C2.55337 0.00129853 1.66798 0.369495 1.01571 1.02359C0.363444 1.67769 -0.00226822 2.56411 -0.000973135 3.48785C0.000321952 4.41159 0.368518 5.29698 1.02262 5.94925L6.38814 11.3934C6.43284 11.4388 6.48613 11.4749 6.54489 11.4995C6.60365 11.5241 6.66672 11.5368 6.73043 11.5368C6.79414 11.5368 6.85721 11.5241 6.91597 11.4995C6.97473 11.4749 7.02802 11.4388 7.07272 11.3934L12.4322 5.94925C13.085 5.29613 13.4516 4.41054 13.4516 3.48717C13.4516 2.5638 13.085 1.67821 12.4322 1.02509ZM11.7507 5.27428L6.72743 10.369L1.70119 5.26947C1.22817 4.79646 0.962437 4.15491 0.962437 3.48597C0.962437 2.81703 1.22817 2.17548 1.70119 1.70247C2.1742 1.22945 2.81575 0.963714 3.48469 0.963714C4.15364 0.963714 4.79518 1.22945 5.2682 1.70247L5.28021 1.71448L6.40015 2.75635C6.48905 2.83909 6.60599 2.88508 6.72743 2.88508C6.84887 2.88508 6.9658 2.83909 7.0547 2.75635L8.17465 1.71448L8.18666 1.70247C8.65999 1.22977 9.30172 0.964464 9.97066 0.964915C10.6396 0.965365 11.281 1.23153 11.7537 1.70487C12.2264 2.1782 12.4917 2.81993 12.4912 3.48887C12.4908 4.15781 12.2246 4.79918 11.7513 5.27188L11.7507 5.27428Z"
    fill="white"
    fill-opacity="0.7"
  />
</svg>
